<svg width="16" height="16" viewBox="0 0 16 16" fill="none" xmlns="http://www.w3.org/2000/svg">
<path d="M12.8333 2.1665C13.8458 2.1665 14.6666 2.98734 14.6666 3.99984V6.33317C14.6666 6.46578 14.6139 6.59296 14.5201 6.68672C14.4264 6.78049 14.2992 6.83317 14.1666 6.83317C13.8572 6.83317 13.5604 6.95609 13.3416 7.17488C13.1228 7.39367 12.9999 7.69042 12.9999 7.99984C12.9999 8.30926 13.1228 8.606 13.3416 8.82479C13.5604 9.04359 13.8572 9.1665 14.1666 9.1665C14.2992 9.1665 14.4264 9.21918 14.5201 9.31295C14.6139 9.40672 14.6666 9.5339 14.6666 9.6665V11.9998C14.6666 13.0123 13.8458 13.8332 12.8333 13.8332H3.16659C2.15409 13.8332 1.33325 13.0123 1.33325 11.9998V9.6665C1.33325 9.5339 1.38593 9.40672 1.4797 9.31295C1.57347 9.21918 1.70064 9.1665 1.83325 9.1665C2.14267 9.1665 2.43942 9.04359 2.65821 8.82479C2.877 8.606 2.99992 8.30926 2.99992 7.99984C2.99992 7.69042 2.877 7.39367 2.65821 7.17488C2.43942 6.95609 2.14267 6.83317 1.83325 6.83317C1.70064 6.83317 1.57347 6.78049 1.4797 6.68672C1.38593 6.59296 1.33325 6.46578 1.33325 6.33317V3.99984C1.33325 2.98734 2.15409 2.1665 3.16659 2.1665H12.8333ZM12.8333 3.1665H3.16659C3.05715 3.1665 2.94879 3.18806 2.84768 3.22994C2.74658 3.27182 2.65471 3.3332 2.57733 3.41058C2.49995 3.48796 2.43856 3.57983 2.39669 3.68093C2.35481 3.78204 2.33325 3.8904 2.33325 3.99984V5.89117C3.28875 6.11684 3.99992 6.97534 3.99992 7.99984C3.99992 9.02434 3.28875 9.88284 2.33325 10.1085V11.9998C2.33325 12.1093 2.35481 12.2176 2.39669 12.3187C2.43856 12.4198 2.49995 12.5117 2.57733 12.5891C2.65471 12.6665 2.74658 12.7279 2.84768 12.7697C2.94879 12.8116 3.05715 12.8332 3.16659 12.8332H12.8333C12.9427 12.8332 13.0511 12.8116 13.1522 12.7697C13.2533 12.7279 13.3451 12.6665 13.4225 12.5891C13.4999 12.5117 13.5613 12.4198 13.6032 12.3187C13.645 12.2176 13.6666 12.1093 13.6666 11.9998V10.1085C12.7111 9.88284 11.9999 9.02434 11.9999 7.99984C11.9999 6.97534 12.7111 6.11684 13.6666 5.89117V3.99984C13.6666 3.8904 13.645 3.78204 13.6032 3.68093C13.5613 3.57983 13.4999 3.48796 13.4225 3.41058C13.3451 3.3332 13.2533 3.27182 13.1522 3.22994C13.0511 3.18806 12.9427 3.1665 12.8333 3.1665ZM6.01325 5.11567C6.11512 5.03079 6.24653 4.98984 6.37859 5.00184C6.51064 5.01385 6.63252 5.07781 6.71742 5.17967L7.99992 6.71884L9.28242 5.17967C9.32446 5.12922 9.37603 5.08755 9.43418 5.05703C9.49233 5.02651 9.55593 5.00774 9.62133 5.0018C9.68673 4.99586 9.75267 5.00285 9.81537 5.02239C9.87807 5.04193 9.9363 5.07363 9.98675 5.11567C10.0372 5.15772 10.0789 5.20929 10.1094 5.26744C10.1399 5.32559 10.1587 5.38918 10.1646 5.45458C10.1706 5.51999 10.1636 5.58592 10.144 5.64862C10.1245 5.71132 10.0928 5.76955 10.0508 5.82L8.92825 7.1665H9.66659C9.79412 7.1665 9.91684 7.21523 10.0096 7.30272C10.1024 7.39021 10.1583 7.50986 10.1658 7.63717L10.1666 7.6665C10.1666 7.79911 10.1139 7.92629 10.0201 8.02006C9.92637 8.11382 9.79919 8.1665 9.66659 8.1665H8.58325V8.83317H9.66659C9.79412 8.83316 9.91684 8.88189 10.0096 8.96938C10.1024 9.05688 10.1583 9.17652 10.1658 9.30384L10.1666 9.33317C10.1666 9.46578 10.1139 9.59296 10.0201 9.68672C9.92637 9.78049 9.79919 9.83317 9.66659 9.83317H8.58325V10.4998C8.58326 10.6274 8.53453 10.7501 8.44704 10.8429C8.35955 10.9357 8.2399 10.9915 8.11259 10.999L8.08325 10.9998C7.95064 10.9998 7.82347 10.9472 7.7297 10.8534C7.63593 10.7596 7.58325 10.6324 7.58325 10.4998V9.83317H6.33325C6.20572 9.83318 6.083 9.78445 5.99021 9.69696C5.89742 9.60946 5.84157 9.48982 5.83408 9.3625L5.83325 9.33317C5.83325 9.20056 5.88593 9.07339 5.9797 8.97962C6.07347 8.88585 6.20064 8.83317 6.33325 8.83317H7.58325V8.1665H6.33325C6.20572 8.16651 6.083 8.11778 5.99021 8.03029C5.89742 7.9428 5.84157 7.82315 5.83408 7.69584L5.83325 7.6665C5.83325 7.5339 5.88593 7.40672 5.9797 7.31295C6.07347 7.21918 6.20064 7.1665 6.33325 7.1665H7.07125L5.94909 5.81984C5.8677 5.72218 5.82657 5.59718 5.83406 5.47027C5.84155 5.34336 5.89711 5.22408 5.98942 5.13667L6.01325 5.11567Z" fill="#D4D4D4"/>
</svg>
