<svg xmlns="http://www.w3.org/2000/svg" xmlns:xlink="http://www.w3.org/1999/xlink" width="27" height="25" viewBox="0 0 27 25" fill="none">
<g  clip-path="url(#clip-path-322_1191)">
<path d="M20.1935 7.70615C20.214 8.16183 20.0234 8.53465 19.792 8.90058C19.5742 9.25269 19.3428 9.59099 19.1182 9.9362C18.9072 10.2538 18.9072 10.2676 19.2679 10.3435C21.0988 10.7578 22.9364 11.1651 24.7673 11.5794C24.8762 11.607 24.9919 11.6277 25.1008 11.6553C25.6044 11.7796 25.9039 12.1524 25.8903 12.6288C25.8835 13.1466 25.5908 13.5057 25.0599 13.6092C24.1956 13.768 23.3244 13.9061 22.4532 14.0511C20.7108 14.3411 18.9752 14.631 17.2329 14.9279C16.9266 14.9831 16.7088 14.921 16.4842 14.6863C14.7418 12.9188 12.9858 11.1651 11.223 9.41148C11.0325 9.22507 10.9712 9.05247 11.012 8.7763C11.4544 6.16655 11.8832 3.55678 12.3188 0.947003C12.4141 0.373957 12.7953 0.0149399 13.2853 0.00113164C13.8706 -0.0195809 14.1905 0.242777 14.3471 0.89177C14.769 2.67995 15.1774 4.46122 15.5994 6.2494C15.6947 6.65675 15.7015 6.65675 16.0486 6.44272C16.3549 6.2494 16.6543 6.04228 16.9674 5.86277C17.6821 5.45542 18.4103 5.40709 19.125 5.83515C19.826 6.25631 20.1663 6.89149 20.1935 7.70615Z"   fill="#000000" >
</path>
<path d="M6.42462 17.1306C6.41782 16.7232 6.54033 16.3573 6.74451 16.019C6.9487 15.6876 7.14608 15.3493 7.36387 15.0317C7.53403 14.7831 7.5 14.6658 7.19372 14.5967C5.98222 14.3206 4.77073 14.0306 3.55924 13.7406C2.97391 13.6025 2.39538 13.4644 1.81005 13.3333C1.26556 13.209 0.993318 12.8776 1.00012 12.3184C1.00693 11.7936 1.32682 11.4277 1.87131 11.338C3.04197 11.1377 4.21263 10.9375 5.38328 10.7442C6.81258 10.5026 8.23507 10.2609 9.66437 10.0124C9.86174 9.97784 10.0047 10.0124 10.1476 10.1573C11.9512 11.9731 13.7617 13.7889 15.5789 15.5978C15.7491 15.7704 15.7695 15.943 15.7355 16.1571C15.4292 18.0005 15.1297 19.8439 14.8234 21.6873C14.6941 22.4882 14.5716 23.296 14.4355 24.0969C14.3606 24.5456 14.1564 24.8908 13.7072 25.0496C13.3533 25.1739 13.0402 25.0842 12.7612 24.8494C12.5229 24.6492 12.4277 24.3661 12.3664 24.0692C11.9717 22.2189 11.5837 20.3686 11.1753 18.5252C11.046 17.9383 11.1277 17.9038 10.59 18.2905C10.2973 18.5045 10.0115 18.7323 9.7052 18.9256C8.99056 19.3606 8.24869 19.4089 7.5068 19.0016C6.77854 18.5942 6.46546 17.9383 6.42462 17.1306Z"   fill="#000000" >
</path>
</g>
<defs>
<clipPath id="clip-path-322_1191">
<path d="M0 25L27 25L27 0L0 0L0 25Z" fill="white"/>
</clipPath>
</defs>
</svg>
