<svg xmlns="http://www.w3.org/2000/svg" xmlns:xlink="http://www.w3.org/1999/xlink" width="60" height="60" viewBox="0 0 60 60" fill="none">
<path d="M44.9897 23.974C50.8209 26.0303 55.0003 31.589 55.0003 38.124C55.0003 40.6265 54.3853 43.0446 53.2271 45.2046C53.1221 45.4003 52.9346 45.7277 52.659 46.1984L53.5153 49.3365C53.8965 50.7365 52.6128 52.0209 51.2128 51.639L48.0696 50.7815L47.7047 50.9965C47.5601 51.0832 47.4141 51.1675 47.2666 51.2493C47.1192 51.331 46.9704 51.4103 46.8204 51.487C46.6702 51.5637 46.5189 51.6379 46.3663 51.7095C46.2136 51.7811 46.0599 51.8501 45.9049 51.9165C45.7499 51.9829 45.5939 52.0467 45.4368 52.1078C45.2797 52.1689 45.1215 52.2274 44.9625 52.2831C44.8034 52.3389 44.6434 52.3919 44.4825 52.4423C44.3216 52.4926 44.1599 52.5403 43.9974 52.5851C43.8349 52.63 43.6716 52.6721 43.5078 52.7115C43.3438 52.7508 43.1793 52.7873 43.0141 52.8211C42.8489 52.8549 42.6832 52.8859 42.517 52.9141C42.3508 52.9423 42.1841 52.9676 42.0171 52.9901C41.85 53.0126 41.6826 53.0323 41.5149 53.0491C41.3471 53.066 41.1792 53.08 41.011 53.0912C40.8427 53.1024 40.6743 53.1107 40.5059 53.1162C40.3374 53.1216 40.1689 53.1243 40.0003 53.124C35.4303 53.124 31.3378 51.0803 28.5859 47.8571C28.0373 47.9461 27.4859 48.0129 26.9319 48.0575C26.3779 48.1021 25.8229 48.1242 25.2671 48.124C21.5559 48.124 17.9859 47.1365 14.8684 45.294C14.7609 45.2303 14.4928 45.0752 14.0696 44.8315L9.35024 46.1003C7.94903 46.4771 6.66899 45.1877 7.05653 43.7896L8.3334 39.1753C8.01399 38.6468 7.70337 38.1133 7.40153 37.5746C7.30332 37.3944 7.20795 37.2125 7.11541 37.0293C7.02291 36.846 6.93329 36.6613 6.84653 36.4753C6.75977 36.2893 6.67594 36.1019 6.59504 35.9132C6.51414 35.7245 6.43621 35.5346 6.36125 35.3435C6.28629 35.1524 6.21434 34.9602 6.14539 34.7668C6.07641 34.5734 6.01049 34.379 5.94764 34.1836C5.88475 33.9882 5.82493 33.7918 5.76818 33.5946C5.71144 33.3973 5.65779 33.1991 5.60723 33.0002C5.55668 32.8012 5.50924 32.6014 5.46493 32.401C5.42061 32.2005 5.37944 31.9995 5.34141 31.7977C5.30338 31.596 5.26851 31.3937 5.2368 31.1909C5.20509 30.9881 5.17655 30.7848 5.15119 30.5811C5.12583 30.3773 5.10366 30.1733 5.08468 29.9689C5.0657 29.7645 5.04991 29.5598 5.03733 29.3549C5.02474 29.15 5.01536 28.945 5.00918 28.7398C5.003 28.5345 5.00003 28.3293 5.00026 28.124C5.00026 17.0721 14.0803 8.12402 25.2671 8.12402C34.6371 8.12402 42.7271 14.4527 44.944 23.3171C44.9996 23.5378 45.0127 23.7596 44.9897 23.9734L44.9897 23.974ZM40.999 23.1565C38.8409 16.5246 32.5303 11.874 25.2671 11.874C16.139 11.874 8.75024 19.1552 8.75024 28.124C8.75024 30.8353 9.42401 33.4465 10.6953 35.7821C10.864 36.0921 11.2915 36.8196 11.9621 37.9352C11.9785 37.9624 11.9941 37.99 12.009 38.0179C12.0239 38.0459 12.0381 38.0742 12.0516 38.1029C12.0651 38.1315 12.0778 38.1605 12.0899 38.1898C12.1019 38.2192 12.1132 38.2488 12.1237 38.2786C12.1342 38.3085 12.144 38.3386 12.153 38.3691C12.1619 38.3994 12.1701 38.43 12.1776 38.4608C12.185 38.4916 12.1917 38.5226 12.1975 38.5537C12.2034 38.5848 12.2085 38.6161 12.2128 38.6475C12.2171 38.6789 12.2206 38.7104 12.2232 38.742C12.2259 38.7735 12.2278 38.8051 12.2289 38.8368C12.23 38.8685 12.2302 38.9001 12.2297 38.9318C12.2292 38.9635 12.2279 38.9952 12.2258 39.0268C12.2236 39.0584 12.2207 39.0899 12.217 39.1214C12.2133 39.1529 12.2088 39.1842 12.2035 39.2154C12.1981 39.2467 12.192 39.2777 12.1851 39.3087C12.1783 39.3396 12.1706 39.3704 12.1622 39.4009L11.5459 41.6271L13.8446 41.009C13.8742 41.001 13.9039 40.9938 13.9339 40.9873C13.9638 40.9808 13.9939 40.9751 14.024 40.9701C14.0542 40.9651 14.0846 40.9608 14.115 40.9573C14.1454 40.9537 14.1758 40.9509 14.2064 40.9489C14.2369 40.9468 14.2675 40.9455 14.2981 40.945C14.3288 40.9444 14.3594 40.9446 14.39 40.9456C14.4205 40.9465 14.4511 40.9482 14.4816 40.9507C14.5121 40.9532 14.5426 40.9564 14.5729 40.9603C14.6033 40.9642 14.6335 40.9689 14.6636 40.9743C14.6938 40.9798 14.7238 40.9859 14.7536 40.9928C14.7834 40.9997 14.8131 41.0073 14.8425 41.0157C14.872 41.024 14.9012 41.0331 14.9302 41.0429C14.9592 41.0527 14.988 41.0631 15.0165 41.0743C15.045 41.0855 15.0732 41.0974 15.1011 41.1099C15.1291 41.1225 15.1566 41.1357 15.1839 41.1496C15.2111 41.1636 15.2381 41.1782 15.2646 41.1934C16.1009 41.6734 16.599 41.9609 16.7765 42.0659C16.9363 42.1601 17.0976 42.2518 17.2605 42.3407C17.4233 42.4295 17.5876 42.5157 17.7533 42.5991C17.9191 42.6824 18.0862 42.7631 18.2546 42.8409C18.423 42.9186 18.5927 42.9936 18.7637 43.0658C18.9346 43.1379 19.1067 43.2071 19.2799 43.2735C19.4532 43.3399 19.6275 43.4033 19.8029 43.4638C19.9783 43.5244 20.1546 43.5819 20.3319 43.6366C20.5092 43.6912 20.6874 43.7429 20.8664 43.7916C21.0454 43.8402 21.2253 43.8858 21.4058 43.9285C21.5864 43.9712 21.7676 44.0108 21.9495 44.0474C22.1314 44.084 22.3139 44.1175 22.4969 44.148C22.6799 44.1785 22.8634 44.2059 23.0473 44.2303C23.2312 44.2546 23.4155 44.2758 23.6001 44.294C23.7848 44.3122 23.9697 44.3272 24.1548 44.3392C24.3399 44.3512 24.5252 44.3602 24.7107 44.366C24.8961 44.3718 25.0816 44.3744 25.2671 44.374C25.6278 44.374 25.9871 44.3627 26.3447 44.3402C26.2893 44.2187 26.2356 44.0965 26.1835 43.9736C26.1314 43.8506 26.081 43.7269 26.0322 43.6027C25.9835 43.4784 25.9364 43.3534 25.891 43.2278C25.8456 43.1023 25.8018 42.9761 25.7598 42.8494C25.7178 42.7226 25.6775 42.5953 25.6389 42.4675C25.6003 42.3397 25.5634 42.2114 25.5282 42.0826C25.493 41.9538 25.4595 41.8245 25.4278 41.6948C25.3961 41.5651 25.3661 41.435 25.338 41.3045C25.3097 41.174 25.2832 41.0431 25.2585 40.9119C25.2338 40.7807 25.2109 40.6491 25.1897 40.5173C25.1685 40.3854 25.149 40.2534 25.1314 40.121C25.1138 39.9887 25.0979 39.8561 25.0838 39.7233C25.0697 39.5905 25.0574 39.4576 25.0468 39.3244C25.0363 39.1914 25.0275 39.0581 25.0206 38.9248C25.0136 38.7914 25.0084 38.658 25.005 38.5245C25.0017 38.391 25.0001 38.2576 25.0003 38.124C25.0003 29.8396 31.7159 23.124 40.0003 23.124C40.3359 23.124 40.669 23.1353 40.999 23.1565ZM48.8334 46.4215C48.8251 46.3913 48.8177 46.361 48.811 46.3304C48.8042 46.2998 48.7983 46.2691 48.7932 46.2383C48.7879 46.2074 48.7835 46.1764 48.78 46.1453C48.7763 46.1142 48.7735 46.0831 48.7714 46.0519C48.7694 46.0206 48.7681 45.9894 48.7675 45.9581C48.7671 45.9268 48.7674 45.8955 48.7684 45.8643C48.7695 45.833 48.7714 45.8017 48.774 45.7706C48.7766 45.7394 48.78 45.7083 48.7842 45.6773C48.7883 45.6463 48.7933 45.6154 48.7991 45.5846C48.8048 45.5539 48.8113 45.5232 48.8186 45.4928C48.8258 45.4624 48.8339 45.4322 48.8427 45.4021C48.8514 45.3721 48.8609 45.3423 48.8712 45.3127C48.8815 45.2831 48.8925 45.2539 48.9042 45.2249C48.916 45.1959 48.9284 45.1672 48.9416 45.1388C48.9548 45.1104 48.9686 45.0824 48.9832 45.0547C48.9978 45.027 49.0131 44.9996 49.029 44.9728C49.3346 44.4637 49.6323 43.9502 49.9221 43.4321C49.9766 43.3306 50.0294 43.2283 50.0806 43.1252C50.1319 43.022 50.1816 42.9182 50.2296 42.8135C50.2777 42.7088 50.3241 42.6035 50.3689 42.4973C50.4137 42.3912 50.4569 42.2844 50.4983 42.177C50.5399 42.0696 50.5797 41.9616 50.6179 41.8529C50.656 41.7442 50.6925 41.635 50.7273 41.5252C50.7621 41.4154 50.7952 41.3051 50.8266 41.1943C50.858 41.0835 50.8876 40.9722 50.9156 40.8605C50.9435 40.7487 50.9698 40.6366 50.9943 40.5241C51.0188 40.4115 51.0415 40.2987 51.0625 40.1854C51.0836 40.0721 51.1028 39.9586 51.1203 39.8448C51.1378 39.731 51.1535 39.6169 51.1675 39.5026C51.1815 39.3883 51.1937 39.2738 51.2042 39.1591C51.2146 39.0444 51.2233 38.9296 51.2302 38.8146C51.2371 38.6996 51.2422 38.5846 51.2455 38.4694C51.2489 38.3543 51.2505 38.2392 51.2503 38.124C51.2503 31.9109 46.2134 26.874 40.0003 26.874C33.7871 26.874 28.7503 31.9109 28.7503 38.124C28.7503 44.3371 33.7871 49.374 40.0003 49.374C40.1267 49.3743 40.253 49.3723 40.3793 49.3683C40.5056 49.3642 40.6318 49.358 40.7579 49.3497C40.8841 49.3414 41.01 49.331 41.1357 49.3184C41.2615 49.3058 41.387 49.291 41.5122 49.2742C41.6374 49.2574 41.7624 49.2384 41.887 49.2173C42.0116 49.1962 42.1358 49.173 42.2596 49.1477C42.3834 49.1225 42.5068 49.0951 42.6297 49.0656C42.7525 49.0361 42.8749 49.0046 42.9968 48.971C43.1186 48.9374 43.2398 48.9017 43.3604 48.864C43.481 48.8262 43.601 48.7864 43.7202 48.7447C43.8395 48.7029 43.958 48.6591 44.0758 48.6133C44.1936 48.5675 44.3106 48.5197 44.4267 48.4699C44.5429 48.4202 44.6582 48.3684 44.7726 48.3148C44.887 48.2611 45.0004 48.2055 45.113 48.1479C45.2256 48.0905 45.3371 48.0311 45.4476 47.9697C45.5581 47.9084 45.6675 47.8452 45.7759 47.7803C45.9052 47.7028 46.2615 47.4946 46.8609 47.1452C46.8877 47.1296 46.9149 47.1148 46.9424 47.1005C46.9699 47.0863 46.9978 47.0727 47.026 47.0599C47.0542 47.047 47.0827 47.0348 47.1116 47.0234C47.1403 47.0119 47.1695 47.0012 47.1988 46.9912C47.2282 46.9812 47.2577 46.9719 47.2875 46.9634C47.3174 46.9549 47.3474 46.9471 47.3775 46.94C47.4077 46.9329 47.4381 46.9267 47.4686 46.9211C47.4991 46.9155 47.5296 46.9108 47.5604 46.9068C47.5912 46.9027 47.622 46.8995 47.6529 46.897C47.6838 46.8945 47.7147 46.8927 47.7457 46.8918C47.7767 46.8908 47.8077 46.8906 47.8387 46.8912C47.8697 46.8918 47.9007 46.8932 47.9316 46.8953C47.9625 46.8974 47.9934 46.9002 48.0242 46.9039C48.0549 46.9075 48.0856 46.9119 48.1162 46.9171C48.1468 46.9223 48.1772 46.9282 48.2075 46.9349C48.2378 46.9416 48.2679 46.949 48.2977 46.9571L49.034 47.1578L48.8334 46.4215ZM19.3753 24.999C19.3343 24.999 19.2934 24.998 19.2526 24.996C19.2117 24.994 19.171 24.991 19.1302 24.987C19.0895 24.983 19.0489 24.978 19.0084 24.972C18.9679 24.9659 18.9277 24.9589 18.8875 24.951C18.8474 24.9429 18.8074 24.934 18.7678 24.9241C18.7281 24.9141 18.6887 24.9032 18.6495 24.8913C18.6104 24.8794 18.5716 24.8667 18.5331 24.8529C18.4945 24.8391 18.4564 24.8244 18.4186 24.8087C18.3808 24.7931 18.3433 24.7765 18.3064 24.759C18.2694 24.7414 18.2328 24.7231 18.1968 24.7038C18.1607 24.6845 18.1251 24.6643 18.09 24.6433C18.0549 24.6223 18.0204 24.6004 17.9863 24.5777C17.9523 24.5549 17.9189 24.5314 17.886 24.507C17.8531 24.4826 17.8209 24.4575 17.7893 24.4315C17.7577 24.4056 17.7267 24.3789 17.6963 24.3514C17.666 24.3239 17.6364 24.2957 17.6075 24.2668C17.5786 24.2378 17.5504 24.2082 17.5229 24.1779C17.4954 24.1476 17.4687 24.1166 17.4427 24.085C17.4168 24.0534 17.3916 24.0211 17.3672 23.9882C17.3429 23.9554 17.3193 23.922 17.2966 23.8879C17.2739 23.8539 17.252 23.8194 17.2309 23.7843C17.2099 23.7492 17.1897 23.7136 17.1705 23.6775C17.1512 23.6414 17.1328 23.6048 17.1153 23.5679C17.0978 23.5309 17.0812 23.4935 17.0656 23.4557C17.0499 23.4179 17.0352 23.3797 17.0214 23.3412C17.0076 23.3027 16.9948 23.2639 16.9829 23.2247C16.971 23.1855 16.9601 23.1461 16.9502 23.1064C16.9402 23.0668 16.9313 23.0269 16.9233 22.9867C16.9153 22.9466 16.9083 22.9063 16.9023 22.8658C16.8963 22.8253 16.8913 22.7848 16.8873 22.744C16.8833 22.7033 16.8803 22.6625 16.8783 22.6217C16.8763 22.5808 16.8753 22.5399 16.8753 22.499C16.8753 22.4581 16.8763 22.4172 16.8783 22.3763C16.8803 22.3355 16.8833 22.2947 16.8873 22.254C16.8913 22.2132 16.8963 22.1727 16.9023 22.1322C16.9083 22.0917 16.9153 22.0514 16.9233 22.0113C16.9313 21.9711 16.9402 21.9312 16.9502 21.8916C16.9601 21.8519 16.971 21.8125 16.9829 21.7733C16.9948 21.7341 17.0076 21.6953 17.0214 21.6568C17.0352 21.6183 17.0499 21.5801 17.0656 21.5423C17.0812 21.5045 17.0978 21.4671 17.1153 21.4301C17.1328 21.3932 17.1512 21.3566 17.1705 21.3205C17.1897 21.2844 17.2099 21.2488 17.2309 21.2137C17.252 21.1787 17.2739 21.1441 17.2966 21.1101C17.3193 21.0761 17.3429 21.0426 17.3672 21.0097C17.3916 20.9769 17.4168 20.9446 17.4427 20.913C17.4687 20.8814 17.4954 20.8504 17.5229 20.8201C17.5504 20.7898 17.5786 20.7602 17.6075 20.7312C17.6364 20.7023 17.666 20.6741 17.6963 20.6466C17.7267 20.6191 17.7577 20.5924 17.7893 20.5665C17.8209 20.5405 17.8531 20.5154 17.886 20.491C17.9189 20.4666 17.9523 20.4431 17.9863 20.4203C18.0204 20.3976 18.0549 20.3757 18.09 20.3547C18.1251 20.3337 18.1607 20.3135 18.1968 20.2942C18.2328 20.2749 18.2694 20.2566 18.3064 20.239C18.3433 20.2215 18.3808 20.2049 18.4186 20.1893C18.4564 20.1737 18.4945 20.1589 18.5331 20.1451C18.5716 20.1313 18.6104 20.1186 18.6495 20.1067C18.6887 20.0948 18.7281 20.0838 18.7678 20.0739C18.8074 20.064 18.8474 20.055 18.8875 20.047C18.9277 20.0391 18.9679 20.0321 19.0084 20.0261C19.0489 20.02 19.0895 20.015 19.1302 20.0111C19.171 20.007 19.2117 20.004 19.2526 20.002C19.2934 20 19.3343 19.999 19.3753 19.999C19.4162 19.999 19.4571 20 19.4979 20.002C19.5388 20.004 19.5796 20.007 19.6203 20.0111C19.661 20.015 19.7016 20.02 19.7421 20.0261C19.7826 20.0321 19.8228 20.0391 19.863 20.047C19.9031 20.055 19.9431 20.064 19.9827 20.0739C20.0224 20.0838 20.0618 20.0948 20.101 20.1067C20.1401 20.1186 20.179 20.1313 20.2175 20.1451C20.256 20.1589 20.2941 20.1737 20.3319 20.1893C20.3697 20.2049 20.4072 20.2215 20.4441 20.239C20.4811 20.2566 20.5177 20.2749 20.5538 20.2942C20.5898 20.3135 20.6254 20.3337 20.6605 20.3547C20.6956 20.3757 20.7301 20.3976 20.7642 20.4203C20.7982 20.4431 20.8316 20.4666 20.8645 20.491C20.8974 20.5154 20.9296 20.5405 20.9612 20.5665C20.9929 20.5924 21.0239 20.6191 21.0542 20.6466C21.0845 20.6741 21.1141 20.7023 21.1431 20.7312C21.1719 20.7602 21.2002 20.7898 21.2277 20.8201C21.2551 20.8504 21.2818 20.8814 21.3078 20.913C21.3337 20.9446 21.3589 20.9769 21.3833 21.0097C21.4077 21.0426 21.4312 21.0761 21.454 21.1101C21.4767 21.1441 21.4985 21.1787 21.5196 21.2137C21.5406 21.2488 21.5608 21.2844 21.58 21.3205C21.5993 21.3566 21.6177 21.3932 21.6352 21.4301C21.6528 21.4671 21.6693 21.5045 21.685 21.5423C21.7006 21.5801 21.7153 21.6183 21.7291 21.6568C21.7429 21.6953 21.7557 21.7341 21.7676 21.7733C21.7795 21.8125 21.7904 21.8519 21.8004 21.8916C21.8103 21.9312 21.8192 21.9711 21.8272 22.0113C21.8352 22.0514 21.8422 22.0917 21.8482 22.1322C21.8542 22.1727 21.8592 22.2132 21.8632 22.254C21.8673 22.2947 21.8703 22.3355 21.8723 22.3763C21.8742 22.4172 21.8752 22.4581 21.8752 22.499C21.8752 22.5399 21.8742 22.5808 21.8723 22.6217C21.8703 22.6625 21.8673 22.7033 21.8632 22.744C21.8592 22.7848 21.8542 22.8253 21.8482 22.8658C21.8422 22.9063 21.8352 22.9466 21.8272 22.9867C21.8192 23.0269 21.8103 23.0668 21.8004 23.1064C21.7904 23.1461 21.7795 23.1855 21.7676 23.2247C21.7557 23.2639 21.7429 23.3027 21.7291 23.3412C21.7153 23.3797 21.7006 23.4179 21.6849 23.4557C21.6693 23.4935 21.6528 23.5309 21.6352 23.5679C21.6177 23.6048 21.5993 23.6414 21.58 23.6775C21.5608 23.7136 21.5406 23.7492 21.5196 23.7843C21.4985 23.8194 21.4767 23.8539 21.454 23.8879C21.4312 23.922 21.4077 23.9554 21.3833 23.9883C21.3589 24.0212 21.3337 24.0534 21.3078 24.085C21.2818 24.1166 21.2551 24.1476 21.2277 24.1779C21.2002 24.2082 21.1719 24.2378 21.1431 24.2668C21.1141 24.2957 21.0845 24.3239 21.0542 24.3514C21.0239 24.3789 20.9929 24.4056 20.9612 24.4315C20.9296 24.4575 20.8974 24.4826 20.8645 24.507C20.8316 24.5314 20.7982 24.5549 20.7642 24.5777C20.7301 24.6004 20.6956 24.6223 20.6605 24.6433C20.6254 24.6643 20.5898 24.6845 20.5538 24.7038C20.5177 24.7231 20.4811 24.7414 20.4441 24.759C20.4072 24.7765 20.3697 24.7931 20.3319 24.8087C20.2941 24.8244 20.256 24.8391 20.2175 24.8529C20.179 24.8667 20.1401 24.8794 20.101 24.8913C20.0618 24.9032 20.0224 24.9141 19.9827 24.9241C19.9431 24.934 19.9031 24.9429 19.863 24.951C19.8228 24.9589 19.7826 24.9659 19.7421 24.972C19.7016 24.978 19.661 24.983 19.6203 24.987C19.5796 24.991 19.5388 24.994 19.4979 24.996C19.4571 24.998 19.4162 24.999 19.3753 24.999ZM30.6253 24.999C30.5843 24.999 30.5434 24.998 30.5026 24.996C30.4617 24.994 30.421 24.991 30.3802 24.987C30.3395 24.983 30.2989 24.978 30.2584 24.972C30.2179 24.9659 30.1777 24.9589 30.1375 24.951C30.0974 24.9429 30.0574 24.934 30.0178 24.9241C29.9781 24.9141 29.9387 24.9032 29.8995 24.8913C29.8604 24.8794 29.8216 24.8667 29.7831 24.8529C29.7445 24.8391 29.7064 24.8244 29.6686 24.8087C29.6308 24.7931 29.5933 24.7765 29.5564 24.759C29.5194 24.7414 29.4828 24.7231 29.4468 24.7038C29.4107 24.6845 29.3751 24.6643 29.34 24.6433C29.3049 24.6223 29.2704 24.6004 29.2363 24.5777C29.2023 24.5549 29.1689 24.5314 29.136 24.507C29.1031 24.4826 29.0709 24.4575 29.0393 24.4315C29.0076 24.4056 28.9766 24.3789 28.9463 24.3514C28.916 24.3239 28.8864 24.2957 28.8575 24.2668C28.8286 24.2378 28.8004 24.2082 28.7729 24.1779C28.7454 24.1476 28.7187 24.1166 28.6927 24.085C28.6668 24.0534 28.6416 24.0211 28.6172 23.9882C28.5928 23.9554 28.5693 23.922 28.5466 23.8879C28.5239 23.8539 28.502 23.8194 28.4809 23.7843C28.4599 23.7492 28.4397 23.7136 28.4205 23.6775C28.4012 23.6414 28.3828 23.6048 28.3653 23.5679C28.3478 23.5309 28.3312 23.4935 28.3156 23.4557C28.2999 23.4179 28.2852 23.3797 28.2714 23.3412C28.2576 23.3027 28.2448 23.2639 28.2329 23.2247C28.221 23.1855 28.2101 23.1461 28.2002 23.1064C28.1902 23.0668 28.1813 23.0269 28.1733 22.9867C28.1653 22.9466 28.1583 22.9063 28.1523 22.8658C28.1463 22.8253 28.1413 22.7848 28.1373 22.744C28.1333 22.7033 28.1303 22.6625 28.1283 22.6217C28.1263 22.5808 28.1253 22.5399 28.1253 22.499C28.1253 22.4581 28.1263 22.4172 28.1283 22.3763C28.1303 22.3355 28.1333 22.2947 28.1373 22.254C28.1413 22.2132 28.1463 22.1727 28.1523 22.1322C28.1583 22.0917 28.1653 22.0514 28.1733 22.0113C28.1813 21.9711 28.1902 21.9312 28.2002 21.8916C28.2101 21.8519 28.221 21.8125 28.2329 21.7733C28.2448 21.7341 28.2576 21.6953 28.2714 21.6568C28.2852 21.6183 28.2999 21.5801 28.3156 21.5423C28.3312 21.5045 28.3478 21.4671 28.3653 21.4301C28.3828 21.3932 28.4012 21.3566 28.4205 21.3205C28.4397 21.2844 28.4599 21.2488 28.4809 21.2137C28.502 21.1787 28.5239 21.1441 28.5466 21.1101C28.5693 21.0761 28.5928 21.0426 28.6172 21.0097C28.6416 20.9769 28.6668 20.9446 28.6927 20.913C28.7187 20.8814 28.7454 20.8504 28.7729 20.8201C28.8004 20.7898 28.8286 20.7602 28.8575 20.7312C28.8864 20.7023 28.916 20.6741 28.9463 20.6466C28.9766 20.6191 29.0076 20.5924 29.0393 20.5665C29.0709 20.5405 29.1031 20.5154 29.136 20.491C29.1689 20.4666 29.2023 20.4431 29.2363 20.4203C29.2704 20.3976 29.3049 20.3757 29.34 20.3547C29.3751 20.3337 29.4107 20.3135 29.4468 20.2942C29.4828 20.2749 29.5194 20.2566 29.5564 20.239C29.5933 20.2215 29.6308 20.2049 29.6686 20.1893C29.7064 20.1737 29.7445 20.1589 29.7831 20.1451C29.8216 20.1313 29.8604 20.1186 29.8995 20.1067C29.9387 20.0948 29.9781 20.0838 30.0178 20.0739C30.0574 20.064 30.0974 20.055 30.1375 20.047C30.1777 20.0391 30.2179 20.0321 30.2584 20.0261C30.2989 20.02 30.3395 20.015 30.3802 20.0111C30.421 20.007 30.4617 20.004 30.5026 20.002C30.5434 20 30.5843 19.999 30.6253 19.999C30.6662 19.999 30.7071 20 30.7479 20.002C30.7888 20.004 30.8296 20.007 30.8703 20.0111C30.911 20.015 30.9516 20.02 30.9921 20.0261C31.0326 20.0321 31.0728 20.0391 31.113 20.047C31.1531 20.055 31.1931 20.064 31.2327 20.0739C31.2724 20.0838 31.3118 20.0948 31.351 20.1067C31.3901 20.1186 31.429 20.1313 31.4675 20.1451C31.506 20.1589 31.5441 20.1737 31.5819 20.1893C31.6197 20.2049 31.6572 20.2215 31.6941 20.239C31.7311 20.2566 31.7677 20.2749 31.8038 20.2942C31.8398 20.3135 31.8754 20.3337 31.9105 20.3547C31.9456 20.3757 31.9801 20.3976 32.0142 20.4203C32.0482 20.4431 32.0816 20.4666 32.1145 20.491C32.1474 20.5154 32.1796 20.5405 32.2112 20.5665C32.2429 20.5924 32.2739 20.6191 32.3042 20.6466C32.3345 20.6741 32.3641 20.7023 32.393 20.7312C32.4219 20.7602 32.4502 20.7898 32.4777 20.8201C32.5051 20.8504 32.5318 20.8814 32.5578 20.913C32.5837 20.9446 32.6089 20.9769 32.6333 21.0097C32.6577 21.0426 32.6812 21.0761 32.704 21.1101C32.7266 21.1441 32.7485 21.1787 32.7696 21.2137C32.7906 21.2488 32.8108 21.2844 32.83 21.3205C32.8493 21.3566 32.8677 21.3932 32.8852 21.4301C32.9028 21.4671 32.9193 21.5045 32.9349 21.5423C32.9506 21.5801 32.9653 21.6183 32.9791 21.6568C32.9929 21.6953 33.0057 21.7341 33.0176 21.7733C33.0295 21.8125 33.0404 21.8519 33.0504 21.8916C33.0603 21.9312 33.0692 21.9711 33.0772 22.0113C33.0852 22.0514 33.0922 22.0917 33.0982 22.1322C33.1042 22.1727 33.1092 22.2132 33.1132 22.254C33.1173 22.2947 33.1203 22.3355 33.1223 22.3763C33.1242 22.4172 33.1252 22.4581 33.1252 22.499C33.1252 22.5399 33.1242 22.5808 33.1223 22.6217C33.1203 22.6625 33.1173 22.7033 33.1132 22.744C33.1092 22.7848 33.1042 22.8253 33.0982 22.8658C33.0922 22.9063 33.0852 22.9466 33.0772 22.9867C33.0692 23.0269 33.0603 23.0668 33.0504 23.1064C33.0404 23.1461 33.0295 23.1855 33.0176 23.2247C33.0057 23.2639 32.9929 23.3027 32.9791 23.3412C32.9653 23.3797 32.9506 23.4179 32.9349 23.4557C32.9193 23.4935 32.9028 23.5309 32.8852 23.5679C32.8677 23.6048 32.8493 23.6414 32.83 23.6775C32.8108 23.7136 32.7906 23.7492 32.7696 23.7843C32.7485 23.8194 32.7267 23.8539 32.704 23.8879C32.6812 23.922 32.6577 23.9554 32.6333 23.9883C32.6089 24.0212 32.5837 24.0534 32.5578 24.085C32.5318 24.1166 32.5051 24.1476 32.4777 24.1779C32.4502 24.2082 32.4219 24.2378 32.393 24.2668C32.3641 24.2957 32.3345 24.3239 32.3042 24.3514C32.2739 24.3789 32.2429 24.4056 32.2112 24.4315C32.1796 24.4575 32.1474 24.4826 32.1145 24.507C32.0816 24.5314 32.0482 24.5549 32.0142 24.5777C31.9801 24.6004 31.9456 24.6223 31.9105 24.6433C31.8754 24.6643 31.8398 24.6845 31.8038 24.7038C31.7677 24.7231 31.7311 24.7414 31.6941 24.759C31.6572 24.7765 31.6197 24.7931 31.5819 24.8087C31.5441 24.8244 31.506 24.8391 31.4675 24.8529C31.429 24.8667 31.3901 24.8794 31.351 24.8913C31.3118 24.9032 31.2724 24.9141 31.2327 24.9241C31.1931 24.934 31.1531 24.9429 31.113 24.951C31.0728 24.9589 31.0326 24.9659 30.9921 24.972C30.9516 24.978 30.911 24.983 30.8703 24.987C30.8296 24.991 30.7888 24.994 30.7479 24.996C30.7071 24.998 30.6662 24.999 30.6253 24.999ZM35.6253 36.874C35.5946 36.874 35.5639 36.8732 35.5333 36.8718C35.5026 36.8702 35.472 36.8679 35.4415 36.865C35.4109 36.862 35.3805 36.8582 35.3502 36.8537C35.3198 36.8492 35.2895 36.844 35.2595 36.8379C35.2294 36.832 35.1995 36.8252 35.1697 36.8178C35.1399 36.8103 35.1103 36.8021 35.081 36.7932C35.0516 36.7843 35.0224 36.7747 34.9936 36.7644C34.9647 36.754 34.9361 36.743 34.9077 36.7312C34.8794 36.7195 34.8513 36.7071 34.8236 36.694C34.7959 36.6809 34.7684 36.6671 34.7414 36.6526C34.7143 36.6381 34.6876 36.623 34.6613 36.6073C34.635 36.5915 34.6091 36.575 34.5836 36.558C34.558 36.5409 34.533 36.5233 34.5083 36.505C34.4837 36.4867 34.4595 36.4679 34.4357 36.4484C34.412 36.4289 34.3888 36.4089 34.3661 36.3883C34.3433 36.3677 34.3211 36.3465 34.2994 36.3248C34.2777 36.3031 34.2566 36.2809 34.2359 36.2582C34.2154 36.2354 34.1953 36.2122 34.1759 36.1885C34.1564 36.1648 34.1375 36.1406 34.1192 36.116C34.1009 36.0913 34.0833 36.0662 34.0663 36.0407C34.0492 36.0152 34.0328 35.9893 34.017 35.963C34.0013 35.9367 33.9861 35.9099 33.9716 35.8829C33.9572 35.8558 33.9434 35.8284 33.9303 35.8007C33.9171 35.7729 33.9047 35.7449 33.893 35.7165C33.8812 35.6882 33.8702 35.6596 33.8598 35.6307C33.8495 35.6018 33.8399 35.5726 33.831 35.5433C33.8221 35.5139 33.8139 35.4844 33.8064 35.4546C33.799 35.4248 33.7923 35.3949 33.7863 35.3648C33.7803 35.3347 33.775 35.3045 33.7705 35.2741C33.766 35.2438 33.7623 35.2133 33.7593 35.1828C33.7563 35.1523 33.754 35.1216 33.7525 35.091C33.751 35.0603 33.7503 35.0297 33.7503 34.999C33.7503 34.9683 33.751 34.9376 33.7525 34.907C33.754 34.8763 33.7563 34.8458 33.7593 34.8152C33.7623 34.7847 33.766 34.7542 33.7705 34.7239C33.775 34.6935 33.7803 34.6633 33.7863 34.6332C33.7923 34.6031 33.799 34.5732 33.8064 34.5434C33.8139 34.5136 33.8221 34.4841 33.831 34.4547C33.8399 34.4254 33.8495 34.3962 33.8598 34.3673C33.8702 34.3385 33.8812 34.3098 33.893 34.2814C33.9047 34.2531 33.9171 34.2251 33.9303 34.1973C33.9434 34.1696 33.9572 34.1422 33.9716 34.1152C33.9861 34.0881 34.0013 34.0614 34.017 34.0351C34.0328 34.0088 34.0492 33.9828 34.0663 33.9573C34.0833 33.9318 34.1009 33.9067 34.1192 33.8821C34.1375 33.8574 34.1564 33.8333 34.1759 33.8095C34.1953 33.7858 34.2154 33.7625 34.2359 33.7398C34.2566 33.7171 34.2777 33.6949 34.2994 33.6732C34.3211 33.6514 34.3433 33.6303 34.3661 33.6097C34.3888 33.5891 34.412 33.5691 34.4357 33.5496C34.4595 33.5302 34.4837 33.5113 34.5083 33.493C34.533 33.4747 34.558 33.457 34.5836 33.44C34.6091 33.4229 34.635 33.4065 34.6613 33.3908C34.6876 33.375 34.7143 33.3599 34.7414 33.3454C34.7684 33.3309 34.7959 33.3171 34.8236 33.304C34.8513 33.2909 34.8794 33.2785 34.9077 33.2667C34.9361 33.255 34.9647 33.244 34.9936 33.2336C35.0224 33.2232 35.0516 33.2136 35.081 33.2047C35.1103 33.1958 35.1399 33.1876 35.1697 33.1802C35.1995 33.1727 35.2294 33.166 35.2595 33.16C35.2895 33.154 35.3198 33.1488 35.3502 33.1443C35.3805 33.1398 35.4109 33.136 35.4415 33.133C35.472 33.13 35.5026 33.1277 35.5333 33.1263C35.5639 33.1247 35.5946 33.124 35.6253 33.124C35.656 33.124 35.6866 33.1247 35.7173 33.1263C35.7479 33.1277 35.7785 33.13 35.8091 33.133C35.8396 33.136 35.87 33.1398 35.9004 33.1443C35.9307 33.1488 35.9609 33.154 35.9911 33.16C36.0211 33.166 36.0511 33.1727 36.0808 33.1802C36.1106 33.1876 36.1402 33.1958 36.1695 33.2047C36.1989 33.2136 36.228 33.2232 36.2569 33.2336C36.2858 33.244 36.3144 33.255 36.3428 33.2667C36.3711 33.2785 36.3992 33.2909 36.4269 33.304C36.4547 33.3171 36.4821 33.3309 36.5091 33.3454C36.5362 33.3599 36.5629 33.375 36.5892 33.3908C36.6155 33.4065 36.6415 33.4229 36.6669 33.44C36.6924 33.457 36.7175 33.4747 36.7422 33.493C36.7668 33.5113 36.791 33.5302 36.8147 33.5496C36.8384 33.5691 36.8617 33.5891 36.8844 33.6097C36.9072 33.6303 36.9294 33.6514 36.9511 33.6732C36.9728 33.6949 36.9939 33.7171 37.0145 33.7398C37.0351 33.7625 37.0552 33.7858 37.0746 33.8095C37.0941 33.8333 37.113 33.8574 37.1313 33.8821C37.1496 33.9067 37.1672 33.9318 37.1843 33.9573C37.2013 33.9828 37.2177 34.0088 37.2335 34.0351C37.2492 34.0614 37.2644 34.0881 37.2788 34.1152C37.2933 34.1422 37.3071 34.1696 37.3203 34.1973C37.3333 34.2251 37.3457 34.2531 37.3575 34.2814C37.3693 34.3098 37.3803 34.3385 37.3906 34.3673C37.401 34.3962 37.4106 34.4254 37.4195 34.4547C37.4284 34.4841 37.4366 34.5136 37.4441 34.5434C37.4515 34.5732 37.4582 34.6031 37.4642 34.6332C37.4702 34.6633 37.4755 34.6935 37.48 34.7239C37.4845 34.7542 37.4883 34.7847 37.4912 34.8152C37.4942 34.8458 37.4965 34.8763 37.498 34.907C37.4995 34.9376 37.5003 34.9683 37.5003 34.999C37.5003 35.0297 37.4995 35.0603 37.498 35.091C37.4965 35.1216 37.4942 35.1523 37.4912 35.1828C37.4883 35.2133 37.4845 35.2438 37.48 35.2741C37.4755 35.3045 37.4702 35.3347 37.4642 35.3648C37.4582 35.3949 37.4515 35.4248 37.4441 35.4546C37.4366 35.4844 37.4284 35.5139 37.4195 35.5433C37.4106 35.5726 37.401 35.6018 37.3906 35.6307C37.3803 35.6596 37.3693 35.6882 37.3575 35.7165C37.3457 35.7449 37.3333 35.7729 37.3202 35.8007C37.3071 35.8284 37.2933 35.8558 37.2788 35.8829C37.2644 35.9099 37.2492 35.9367 37.2335 35.963C37.2177 35.9893 37.2013 36.0152 37.1843 36.0407C37.1672 36.0662 37.1496 36.0913 37.1313 36.116C37.113 36.1406 37.0941 36.1648 37.0746 36.1885C37.0552 36.2122 37.0351 36.2354 37.0145 36.2582C36.9939 36.2809 36.9728 36.3031 36.9511 36.3248C36.9294 36.3465 36.9072 36.3677 36.8844 36.3883C36.8617 36.4089 36.8384 36.4289 36.8147 36.4484C36.791 36.4679 36.7668 36.4867 36.7422 36.505C36.7175 36.5233 36.6924 36.5409 36.6669 36.558C36.6415 36.575 36.6155 36.5915 36.5892 36.6073C36.5629 36.623 36.5362 36.6381 36.5091 36.6526C36.4821 36.6671 36.4547 36.6809 36.4269 36.694C36.3992 36.7071 36.3711 36.7195 36.3428 36.7312C36.3144 36.743 36.2858 36.754 36.2569 36.7644C36.228 36.7747 36.1989 36.7843 36.1695 36.7932C36.1402 36.8021 36.1106 36.8103 36.0808 36.8178C36.0511 36.8252 36.0211 36.832 35.9911 36.8379C35.9609 36.844 35.9307 36.8492 35.9004 36.8537C35.87 36.8582 35.8395 36.862 35.809 36.865C35.7785 36.8679 35.7479 36.8702 35.7173 36.8718C35.6866 36.8732 35.656 36.874 35.6253 36.874ZM44.3752 36.874C44.3446 36.874 44.3139 36.8732 44.2832 36.8718C44.2526 36.8702 44.222 36.8679 44.1915 36.865C44.161 36.862 44.1305 36.8582 44.1001 36.8537C44.0698 36.8492 44.0396 36.844 44.0094 36.8379C43.9794 36.832 43.9494 36.8252 43.9197 36.8178C43.8899 36.8103 43.8603 36.8021 43.831 36.7932C43.8016 36.7843 43.7725 36.7747 43.7436 36.7644C43.7147 36.754 43.6861 36.743 43.6577 36.7312C43.6294 36.7195 43.6013 36.7071 43.5736 36.694C43.5458 36.6809 43.5184 36.6671 43.4914 36.6526C43.4643 36.6381 43.4376 36.623 43.4113 36.6073C43.385 36.5915 43.3591 36.575 43.3336 36.558C43.3081 36.5409 43.283 36.5233 43.2583 36.505C43.2337 36.4867 43.2095 36.4679 43.1858 36.4484C43.1621 36.4289 43.1388 36.4089 43.1161 36.3883C43.0933 36.3677 43.0711 36.3465 43.0494 36.3248C43.0277 36.3031 43.0065 36.2809 42.986 36.2582C42.9654 36.2354 42.9453 36.2122 42.9259 36.1885C42.9064 36.1648 42.8875 36.1406 42.8692 36.116C42.8509 36.0913 42.8333 36.0662 42.8162 36.0407C42.7992 36.0152 42.7828 35.9893 42.767 35.963C42.7513 35.9367 42.7361 35.9099 42.7217 35.8829C42.7072 35.8558 42.6934 35.8284 42.6802 35.8007C42.6672 35.7729 42.6548 35.7449 42.643 35.7165C42.6312 35.6882 42.6202 35.6596 42.6099 35.6307C42.5995 35.6018 42.5899 35.5726 42.581 35.5433C42.5721 35.5139 42.5639 35.4844 42.5564 35.4546C42.549 35.4248 42.5423 35.3949 42.5363 35.3648C42.5303 35.3347 42.5251 35.3045 42.5206 35.2741C42.5161 35.2438 42.5123 35.2133 42.5093 35.1828C42.5063 35.1523 42.504 35.1216 42.5025 35.091C42.501 35.0603 42.5002 35.0297 42.5002 34.999C42.5002 34.9683 42.501 34.9376 42.5025 34.907C42.504 34.8763 42.5063 34.8458 42.5093 34.8152C42.5123 34.7847 42.5161 34.7542 42.5206 34.7239C42.5251 34.6935 42.5303 34.6633 42.5363 34.6332C42.5423 34.6031 42.549 34.5732 42.5564 34.5434C42.5639 34.5136 42.5721 34.4841 42.581 34.4547C42.5899 34.4254 42.5995 34.3962 42.6099 34.3673C42.6202 34.3385 42.6312 34.3098 42.643 34.2814C42.6548 34.2531 42.6672 34.2251 42.6802 34.1973C42.6934 34.1696 42.7072 34.1422 42.7217 34.1152C42.7361 34.0881 42.7513 34.0614 42.767 34.0351C42.7828 34.0088 42.7992 33.9828 42.8162 33.9573C42.8333 33.9318 42.851 33.9067 42.8692 33.8821C42.8875 33.8574 42.9064 33.8333 42.9259 33.8095C42.9453 33.7858 42.9654 33.7625 42.986 33.7398C43.0065 33.7171 43.0277 33.6949 43.0494 33.6732C43.0711 33.6514 43.0933 33.6303 43.1161 33.6097C43.1388 33.5891 43.1621 33.5691 43.1858 33.5496C43.2095 33.5302 43.2337 33.5113 43.2583 33.493C43.283 33.4747 43.3081 33.457 43.3336 33.44C43.3591 33.4229 43.385 33.4065 43.4113 33.3908C43.4376 33.375 43.4643 33.3599 43.4914 33.3454C43.5184 33.3309 43.5458 33.3171 43.5736 33.304C43.6013 33.2909 43.6293 33.2785 43.6577 33.2667C43.6861 33.255 43.7147 33.244 43.7436 33.2336C43.7725 33.2232 43.8016 33.2136 43.831 33.2047C43.8603 33.1958 43.8899 33.1876 43.9197 33.1802C43.9494 33.1727 43.9794 33.166 44.0094 33.16C44.0396 33.154 44.0698 33.1488 44.1001 33.1443C44.1305 33.1398 44.161 33.136 44.1915 33.133C44.222 33.13 44.2526 33.1277 44.2832 33.1263C44.3139 33.1247 44.3446 33.124 44.3752 33.124C44.4059 33.124 44.4366 33.1247 44.4672 33.1263C44.4979 33.1277 44.5285 33.13 44.559 33.133C44.5896 33.136 44.62 33.1398 44.6504 33.1443C44.6807 33.1488 44.711 33.154 44.741 33.16C44.7712 33.166 44.8011 33.1727 44.8309 33.1802C44.8606 33.1876 44.8902 33.1958 44.9195 33.2047C44.9489 33.2136 44.9781 33.2232 45.0069 33.2336C45.0358 33.244 45.0644 33.255 45.0928 33.2667C45.1211 33.2785 45.1492 33.2909 45.1769 33.304C45.2046 33.3171 45.2321 33.3309 45.2591 33.3454C45.2862 33.3599 45.3129 33.375 45.3392 33.3908C45.3655 33.4065 45.3914 33.4229 45.4169 33.44C45.4425 33.457 45.4675 33.4747 45.4922 33.493C45.5169 33.5113 45.541 33.5302 45.5648 33.5496C45.5885 33.5691 45.6117 33.5891 45.6344 33.6097C45.6572 33.6303 45.6794 33.6514 45.7011 33.6732C45.7228 33.6949 45.7439 33.7171 45.7646 33.7398C45.7851 33.7625 45.8052 33.7858 45.8246 33.8095C45.8441 33.8333 45.863 33.8574 45.8813 33.8821C45.8996 33.9067 45.9172 33.9318 45.9342 33.9573C45.9513 33.9828 45.9677 34.0088 45.9835 34.0351C45.9992 34.0614 46.0144 34.0881 46.0289 34.1152C46.0433 34.1422 46.0571 34.1696 46.0702 34.1973C46.0834 34.2251 46.0958 34.2531 46.1075 34.2814C46.1193 34.3098 46.1303 34.3385 46.1407 34.3673C46.151 34.3962 46.1606 34.4254 46.1695 34.4547C46.1784 34.4841 46.1866 34.5136 46.194 34.5434C46.2015 34.5732 46.2082 34.6031 46.2142 34.6332C46.2202 34.6633 46.2255 34.6935 46.23 34.7239C46.2345 34.7542 46.2382 34.7847 46.2412 34.8152C46.2442 34.8458 46.2465 34.8763 46.248 34.907C46.2495 34.9376 46.2502 34.9683 46.2502 34.999C46.2502 35.0297 46.2495 35.0603 46.248 35.091C46.2465 35.1216 46.2442 35.1523 46.2412 35.1828C46.2382 35.2133 46.2345 35.2438 46.23 35.2741C46.2255 35.3045 46.2202 35.3347 46.2142 35.3648C46.2082 35.3949 46.2015 35.4248 46.194 35.4546C46.1866 35.4844 46.1784 35.5139 46.1695 35.5433C46.1606 35.5726 46.151 35.6018 46.1407 35.6307C46.1303 35.6596 46.1193 35.6882 46.1075 35.7165C46.0958 35.7449 46.0834 35.7729 46.0702 35.8007C46.0571 35.8284 46.0433 35.8558 46.0289 35.8829C46.0144 35.9099 45.9993 35.9367 45.9835 35.963C45.9678 35.9893 45.9513 36.0152 45.9342 36.0407C45.9172 36.0662 45.8996 36.0913 45.8813 36.116C45.863 36.1406 45.8441 36.1648 45.8247 36.1885C45.8052 36.2122 45.7851 36.2354 45.7646 36.2582C45.7439 36.2809 45.7228 36.3031 45.7011 36.3248C45.6794 36.3465 45.6572 36.3677 45.6344 36.3883C45.6117 36.4089 45.5885 36.4289 45.5648 36.4484C45.541 36.4679 45.5168 36.4867 45.4922 36.505C45.4675 36.5233 45.4425 36.5409 45.4169 36.558C45.3914 36.575 45.3655 36.5915 45.3392 36.6073C45.3129 36.623 45.2862 36.6381 45.2591 36.6526C45.2321 36.6671 45.2046 36.6809 45.1769 36.694C45.1492 36.7071 45.1211 36.7195 45.0928 36.7312C45.0644 36.743 45.0358 36.754 45.0069 36.7644C44.9781 36.7747 44.9489 36.7843 44.9195 36.7932C44.8902 36.8021 44.8606 36.8103 44.8309 36.8178C44.801 36.8252 44.7711 36.832 44.741 36.8379C44.711 36.844 44.6807 36.8492 44.6504 36.8537C44.62 36.8582 44.5896 36.862 44.559 36.865C44.5285 36.8679 44.4979 36.8702 44.4672 36.8718C44.4366 36.8732 44.4059 36.874 44.3752 36.874Z"   fill="#FFFFFF" >
</path>
</svg>
