<svg width="32" height="32" viewBox="0 0 32 32" fill="none" xmlns="http://www.w3.org/2000/svg">
<g clip-path="url(#clip0_39_5633)">
<path d="M16 2C8.26707 2 2 8.26707 2 16C2 23.7328 8.26707 30 16 30C23.7337 30 30 23.7328 30 16C30 8.26707 23.7337 2 16 2Z" fill="#9C9C9C" stroke="black" stroke-width="2.09286"/>
<path d="M15.9671 10.1304C17.9736 10.1304 18.8989 10.4126 19.2523 11.3511C19.383 11.6984 19.6719 11.9629 20.0316 12.0552C22.3215 12.6429 23.0246 14.0358 23.0247 16.8843C23.0247 20.9992 21.5577 22.1001 15.9593 22.1001C10.3609 22.1001 8.92413 20.9994 8.92413 16.8843C8.9242 14.0271 9.61745 12.6339 11.9153 12.0493C12.2765 11.9571 12.5651 11.692 12.6966 11.3433C13.0479 10.411 13.9603 10.1304 15.9671 10.1304ZM15.9691 13.8032C15.2261 13.8032 14.514 14.0991 13.9886 14.6245C13.4632 15.1499 13.1673 15.862 13.1673 16.605C13.1673 17.348 13.4632 18.061 13.9886 18.5864C14.5139 19.1115 15.2263 19.4067 15.9691 19.4067C16.7121 19.4067 17.4251 19.1118 17.9505 18.5864C18.4759 18.061 18.7708 17.348 18.7708 16.605C18.7708 15.8622 18.4756 15.1498 17.9505 14.6245C17.4251 14.0991 16.7121 13.8032 15.9691 13.8032Z" fill="#333333"/>
</g>
<defs>
<clipPath id="clip0_39_5633">
<rect width="32" height="32" fill="white"/>
</clipPath>
</defs>
</svg>
