<svg width="24" height="24" viewBox="0 0 24 24" fill="none" xmlns="http://www.w3.org/2000/svg">
<g clip-path="url(#clip0_343_2740)">
<path d="M11.9957 0.67041C5.7437 0.67041 0.675415 5.73868 0.675415 11.9906C0.675415 18.2426 5.74368 23.3108 11.9957 23.3108C18.2476 23.3108 23.3159 18.2426 23.3159 11.9906C23.3159 5.73868 18.2476 0.67041 11.9957 0.67041ZM11.9957 21.722C6.62113 21.722 2.26422 17.3652 2.26422 11.9906C2.26422 6.61606 6.62113 2.25919 11.9957 2.25919C17.3702 2.25919 21.7271 6.61611 21.7271 11.9906C21.7271 17.3652 17.3702 21.722 11.9957 21.722Z" fill="white"/>
<path d="M10.6055 11.7922C10.6055 12.2136 10.7729 12.6177 11.0709 12.9156C11.3688 13.2136 11.773 13.381 12.1943 13.381C12.6157 13.381 13.0198 13.2136 13.3178 12.9156C13.6157 12.6177 13.7831 12.2136 13.7831 11.7922C13.7831 11.5835 13.742 11.3769 13.6622 11.1842C13.5823 10.9914 13.4653 10.8163 13.3178 10.6687C13.1702 10.5212 12.9951 10.4042 12.8023 10.3243C12.6096 10.2445 12.403 10.2034 12.1943 10.2034C11.9857 10.2034 11.7791 10.2445 11.5863 10.3243C11.3936 10.4042 11.2184 10.5212 11.0709 10.6687C10.9233 10.8163 10.8063 10.9914 10.7265 11.1842C10.6466 11.3769 10.6055 11.5835 10.6055 11.7922ZM5.83911 11.7922C5.83911 12.2136 6.0065 12.6177 6.30446 12.9156C6.60242 13.2136 7.00654 13.381 7.42792 13.381C7.84929 13.381 8.25341 13.2136 8.55137 12.9156C8.84933 12.6177 9.01672 12.2136 9.01672 11.7922C9.01672 11.3708 8.84933 10.9667 8.55137 10.6687C8.25341 10.3708 7.84929 10.2034 7.42792 10.2034C7.00654 10.2034 6.60242 10.3708 6.30446 10.6687C6.0065 10.9667 5.83911 11.3708 5.83911 11.7922ZM15.3719 11.7922C15.3719 12.2136 15.5393 12.6177 15.8373 12.9156C16.1352 13.2136 16.5394 13.381 16.9607 13.381C17.3821 13.381 17.7862 13.2136 18.0842 12.9156C18.3822 12.6177 18.5495 12.2136 18.5495 11.7922C18.5495 11.3708 18.3822 10.9667 18.0842 10.6687C17.7862 10.3708 17.3821 10.2034 16.9607 10.2034C16.5394 10.2034 16.1352 10.3708 15.8373 10.6687C15.5393 10.9667 15.3719 11.3708 15.3719 11.7922H15.3719Z" fill="white"/>
</g>
<defs>
<clipPath id="clip0_343_2740">
<rect width="24" height="24" fill="white"/>
</clipPath>
</defs>
</svg>
