<svg width="24" height="24" viewBox="0 0 24 24" fill="none" xmlns="http://www.w3.org/2000/svg">
<path d="M14.04 2.63359L3.09002 13.5428V16.3634H5.92142L16.8714 5.45449L14.04 2.63359ZM14.814 0.319389L19.194 4.68319C19.2956 4.7843 19.3763 4.90449 19.4313 5.03685C19.4863 5.16921 19.5146 5.31115 19.5146 5.45449C19.5146 5.59783 19.4863 5.73976 19.4313 5.87213C19.3763 6.00449 19.2956 6.12468 19.194 6.22579L7.14902 18.2258C6.94341 18.4304 6.66512 18.5453 6.37502 18.5453H1.99502C1.8515 18.5456 1.70933 18.5176 1.57663 18.4629C1.44393 18.4082 1.32329 18.328 1.22161 18.2267C1.11993 18.1254 1.0392 18.0051 0.98402 17.8726C0.928842 17.7401 0.9003 17.598 0.900024 17.4545V13.0907C0.900024 12.8015 1.01552 12.524 1.22102 12.3197L13.266 0.319689C13.4717 0.11524 13.75 0.000488281 14.04 0.000488281C14.3301 0.000488281 14.6083 0.11524 14.814 0.319689V0.319389ZM1.99502 23.9999H21.705C21.8485 24.0002 21.9907 23.9722 22.1234 23.9175C22.2561 23.8628 22.3768 23.7826 22.4784 23.6813C22.5801 23.58 22.6608 23.4597 22.716 23.3272C22.7712 23.1947 22.7997 23.0526 22.8 22.9091C22.7998 22.7655 22.7713 22.6234 22.7161 22.4909C22.661 22.3584 22.5802 22.238 22.4785 22.1367C22.3769 22.0354 22.2562 21.9551 22.1235 21.9004C21.9908 21.8457 21.8486 21.8177 21.705 21.818H1.99502C1.85148 21.8177 1.70928 21.8457 1.57656 21.9004C1.44384 21.9551 1.32319 22.0354 1.22151 22.1367C1.11982 22.238 1.03909 22.3584 0.983934 22.4909C0.928773 22.6234 0.900261 22.7655 0.900024 22.9091C0.9003 23.0526 0.928842 23.1947 0.98402 23.3272C1.0392 23.4597 1.11993 23.58 1.22161 23.6813C1.32329 23.7826 1.44393 23.8628 1.57663 23.9175C1.70933 23.9722 1.8515 24.0002 1.99502 23.9999Z" fill="#787878"/>
</svg>
