<svg xmlns="http://www.w3.org/2000/svg" xmlns:xlink="http://www.w3.org/1999/xlink" width="24" height="24" viewBox="0 0 24 24" fill="none">
<path d="M14.2481 9.7936C14.1033 9.6488 13.9489 9.51828 13.7898 9.39727L13.7895 9.39753C13.6258 9.24005 13.4034 9.14307 13.1583 9.14307C12.6552 9.14307 12.2474 9.55088 12.2474 10.0539C12.2474 10.2765 12.3274 10.4804 12.46 10.6386C12.46 10.6387 12.4601 10.6387 12.4601 10.6387C12.5239 10.7147 12.5997 10.7803 12.6848 10.8321C12.7707 10.903 12.855 10.9727 12.9338 11.0515L13.0089 11.1267C13.953 12.0695 13.6711 13.694 12.7271 14.6381L8.69863 18.6653C7.75459 19.6082 6.21984 19.6082 5.27577 18.6653L5.20007 18.5896C4.25598 17.6456 4.25598 16.1097 5.20007 15.1679L6.97982 13.3888C7.20815 13.2075 7.35475 12.9278 7.35475 12.6136C7.35475 12.0672 6.91181 11.6243 6.36541 11.6243C6.15923 11.6243 5.96784 11.6874 5.80935 11.7953C5.80886 11.7943 5.80832 11.7933 5.80781 11.7922L5.78882 11.8099C5.71877 11.8603 5.65544 11.9194 5.60071 11.986L3.75118 13.7166C2.01263 15.4564 2.01263 18.3018 3.75118 20.0391L3.82627 20.1142C5.56485 21.8515 8.40899 21.8515 10.1476 20.1142L14.1748 16.0857C15.911 14.3473 16.0582 11.6048 14.322 9.8675L14.2481 9.7936Z"   fill="#FFFFFF" >
</path>
<path d="M20.0537 3.88609L19.9786 3.81099C18.2401 2.07244 15.3959 2.07244 13.6574 3.81099L9.63011 7.83944C7.89157 9.57799 7.79583 12.0886 9.53437 13.8283L9.60827 13.901C9.68723 13.9799 9.76919 14.0544 9.85284 14.1258C9.9134 14.1934 9.98454 14.2513 10.0636 14.2971C10.0642 14.2975 10.0648 14.298 10.0654 14.2985L10.0657 14.2983C10.1917 14.3708 10.3378 14.4124 10.4936 14.4124C10.9685 14.4124 11.3535 14.0274 11.3535 13.5525C11.3535 13.4185 11.3228 13.2916 11.2681 13.1785C11.1544 12.9232 10.9416 12.7679 10.7944 12.6206L10.7205 12.5479C9.77648 11.6039 10.135 10.2324 11.079 9.28837L15.1086 5.26108C16.0503 4.31701 17.5856 4.31701 18.5297 5.26108L18.6048 5.33498C19.5489 6.27909 19.5489 7.81558 18.6048 8.75845L16.8309 10.5336C16.5896 10.7124 16.4331 10.9991 16.4331 11.3225C16.4331 11.8645 16.8724 12.3039 17.4144 12.3039C17.6031 12.3039 17.7792 12.2505 17.9288 12.1583C17.9299 12.1602 17.9309 12.162 17.9321 12.1639L17.9596 12.1385C18.0443 12.0818 18.1196 12.0121 18.1829 11.9324L20.0524 10.2074C21.7923 8.46885 21.7923 5.62464 20.0537 3.88609Z"   fill="#FFFFFF" >
</path>
</svg>
