<svg xmlns="http://www.w3.org/2000/svg" xmlns:xlink="http://www.w3.org/1999/xlink" width="38" height="38" viewBox="0 0 38 38" fill="none">
<path     fill="#4634DF"  d="M0 19Q0 18.5336 0.0228863 18.0677Q0.0457727 17.6019 0.0914902 17.1377Q0.137208 16.6735 0.205646 16.2121Q0.274085 15.7507 0.36508 15.2933Q0.456074 14.8358 0.569406 14.3834Q0.682738 13.9309 0.818134 13.4846Q0.953529 13.0383 1.11066 12.5991Q1.2678 12.1599 1.44629 11.729Q1.62478 11.2981 1.8242 10.8765Q2.02363 10.4548 2.2435 10.0435Q2.46337 9.63211 2.70316 9.23205Q2.94295 8.83198 3.20208 8.44417Q3.46121 8.05635 3.73906 7.68171Q4.0169 7.30708 4.3128 6.94653Q4.6087 6.58598 4.92193 6.24038Q5.23516 5.89478 5.56497 5.56497Q5.89478 5.23516 6.24038 4.92193Q6.58598 4.6087 6.94653 4.3128Q7.30708 4.0169 7.68171 3.73906Q8.05635 3.46121 8.44417 3.20208Q8.83198 2.94295 9.23205 2.70316Q9.63211 2.46337 10.0435 2.2435Q10.4548 2.02363 10.8765 1.8242Q11.2981 1.62478 11.729 1.44629Q12.1599 1.2678 12.5991 1.11066Q13.0382 0.953529 13.4846 0.818134Q13.9309 0.682738 14.3834 0.569406Q14.8358 0.456074 15.2933 0.36508Q15.7507 0.274085 16.2121 0.205646Q16.6735 0.137208 17.1377 0.0914902Q17.6019 0.0457727 18.0677 0.0228863Q18.5336 0 19 0Q19.4664 0 19.9323 0.0228863Q20.3981 0.0457727 20.8623 0.0914902Q21.3265 0.137208 21.7879 0.205646Q22.2493 0.274085 22.7067 0.36508Q23.1642 0.456074 23.6166 0.569406Q24.0691 0.682738 24.5154 0.818134Q24.9617 0.953529 25.4009 1.11066Q25.8401 1.2678 26.271 1.44629Q26.7019 1.62478 27.1235 1.8242Q27.5452 2.02363 27.9565 2.2435Q28.3679 2.46337 28.768 2.70316Q29.168 2.94295 29.5558 3.20208Q29.9436 3.46121 30.3183 3.73906Q30.6929 4.0169 31.0535 4.3128Q31.414 4.6087 31.7596 4.92193Q32.1052 5.23516 32.435 5.56497Q32.7648 5.89478 33.0781 6.24038Q33.3913 6.58598 33.6872 6.94653Q33.9831 7.30708 34.2609 7.68171Q34.5388 8.05635 34.7979 8.44417Q35.0571 8.83198 35.2968 9.23205Q35.5366 9.63211 35.7565 10.0435Q35.9764 10.4548 36.1758 10.8765Q36.3752 11.2981 36.5537 11.729Q36.7322 12.1599 36.8893 12.5991Q37.0465 13.0382 37.1819 13.4846Q37.3173 13.9309 37.4306 14.3834Q37.5439 14.8358 37.6349 15.2933Q37.7259 15.7507 37.7944 16.2121Q37.8628 16.6735 37.9085 17.1377Q37.9542 17.6019 37.9771 18.0677Q38 18.5336 38 19Q38 19.4664 37.9771 19.9323Q37.9542 20.3981 37.9085 20.8623Q37.8628 21.3265 37.7944 21.7879Q37.7259 22.2493 37.6349 22.7067Q37.5439 23.1642 37.4306 23.6166Q37.3173 24.0691 37.1819 24.5154Q37.0465 24.9617 36.8893 25.4009Q36.7322 25.8401 36.5537 26.271Q36.3752 26.7019 36.1758 27.1235Q35.9764 27.5452 35.7565 27.9565Q35.5366 28.3679 35.2968 28.768Q35.0571 29.168 34.7979 29.5558Q34.5388 29.9436 34.2609 30.3183Q33.9831 30.6929 33.6872 31.0535Q33.3913 31.414 33.0781 31.7596Q32.7648 32.1052 32.435 32.435Q32.1052 32.7648 31.7596 33.0781Q31.414 33.3913 31.0535 33.6872Q30.6929 33.9831 30.3183 34.2609Q29.9436 34.5388 29.5558 34.7979Q29.168 35.0571 28.768 35.2968Q28.3679 35.5366 27.9565 35.7565Q27.5452 35.9764 27.1235 36.1758Q26.7019 36.3752 26.271 36.5537Q25.8401 36.7322 25.4009 36.8893Q24.9617 37.0465 24.5154 37.1819Q24.0691 37.3173 23.6166 37.4306Q23.1642 37.5439 22.7067 37.6349Q22.2493 37.7259 21.7879 37.7944Q21.3265 37.8628 20.8623 37.9085Q20.3981 37.9542 19.9323 37.9771Q19.4664 38 19 38Q18.5336 38 18.0677 37.9771Q17.6019 37.9542 17.1377 37.9085Q16.6735 37.8628 16.2121 37.7944Q15.7507 37.7259 15.2933 37.6349Q14.8358 37.5439 14.3834 37.4306Q13.9309 37.3173 13.4846 37.1819Q13.0383 37.0465 12.5991 36.8893Q12.1599 36.7322 11.729 36.5537Q11.2981 36.3752 10.8765 36.1758Q10.4548 35.9764 10.0435 35.7565Q9.63211 35.5366 9.23205 35.2968Q8.83198 35.0571 8.44417 34.7979Q8.05635 34.5388 7.68171 34.2609Q7.30708 33.9831 6.94653 33.6872Q6.58598 33.3913 6.24038 33.0781Q5.89478 32.7648 5.56497 32.435Q5.23516 32.1052 4.92193 31.7596Q4.6087 31.414 4.3128 31.0535Q4.0169 30.6929 3.73906 30.3183Q3.46121 29.9436 3.20208 29.5558Q2.94295 29.168 2.70316 28.768Q2.46337 28.3679 2.2435 27.9565Q2.02363 27.5452 1.8242 27.1235Q1.62478 26.7019 1.44629 26.271Q1.2678 25.8401 1.11066 25.4009Q0.953529 24.9617 0.818134 24.5154Q0.682738 24.0691 0.569406 23.6166Q0.456074 23.1642 0.36508 22.7067Q0.274085 22.2493 0.205646 21.7879Q0.137208 21.3265 0.0914902 20.8623Q0.0457727 20.3981 0.0228863 19.9323Q0 19.4664 0 19Z">
</path>
<path d="M19 3.5C10.1877 3.5 3 10.6877 3 19.5C3 28.3123 10.1877 35.5 19 35.5C27.8122 35.5 35 28.3123 35 19.5C35 10.6877 27.8122 3.5 19 3.5ZM26.0447 25.036C27.1195 26.1117 25.6127 27.6214 24.536 26.5447L19 21.0087L13.464 26.5447C12.3892 27.6195 10.8786 26.1137 11.9553 25.036L17.4913 19.5L11.9553 13.964C10.8805 12.8892 12.3863 11.3786 13.464 12.4553L19 17.9913L24.536 12.4553C25.6117 11.3805 27.1214 12.8873 26.0447 13.964L20.5087 19.5L26.0447 25.036Z"   fill="#FFFFFF" >
</path>
</svg>
