<svg xmlns="http://www.w3.org/2000/svg" xmlns:xlink="http://www.w3.org/1999/xlink" width="32" height="32" viewBox="0 0 32 32" fill="none">
<path d="M29.3327 17.3104L29.3327 24.0004C29.3327 26.0254 27.691 27.667 25.666 27.667L6.3327 27.667C4.30769 27.667 2.66602 26.0254 2.66602 24.0004L2.66602 8.00036C2.66602 5.97536 4.30769 4.3337 6.3327 4.3337L25.666 4.3337C27.691 4.3337 29.3327 5.97536 29.3327 8.00036L29.3327 17.3104ZM27.3327 14.9784L27.3327 8.00036C27.3327 7.97308 27.332 7.94583 27.3307 7.91858C27.3293 7.89133 27.3273 7.86414 27.3247 7.83698C27.322 7.80983 27.3186 7.78276 27.3146 7.7558C27.3106 7.72883 27.306 7.70195 27.3007 7.6752C27.2953 7.64845 27.2894 7.62186 27.2827 7.59539C27.2761 7.56892 27.2688 7.54264 27.2609 7.51655C27.253 7.49045 27.2445 7.46455 27.2353 7.43889C27.2261 7.4132 27.2163 7.38776 27.2058 7.36255C27.1954 7.33736 27.1843 7.31243 27.1727 7.28776C27.161 7.26312 27.1487 7.23876 27.1359 7.2147C27.123 7.19064 27.1096 7.16691 27.0956 7.14351C27.0815 7.12012 27.067 7.09709 27.0518 7.07442C27.0366 7.05173 27.021 7.02943 27.0047 7.00751C26.9885 6.98562 26.9717 6.96413 26.9544 6.94305C26.9371 6.92196 26.9193 6.90132 26.901 6.88111C26.8826 6.86088 26.8638 6.84113 26.8445 6.82186C26.8252 6.80257 26.8055 6.78376 26.7853 6.76545C26.7651 6.74712 26.7444 6.72931 26.7234 6.71201C26.7023 6.6947 26.6808 6.67792 26.6589 6.66167C26.6369 6.64542 26.6146 6.62972 26.592 6.61458C26.5693 6.59943 26.5462 6.58484 26.5229 6.5708C26.4995 6.55677 26.4757 6.54334 26.4517 6.53048C26.4276 6.51763 26.4033 6.50537 26.3786 6.4937C26.354 6.48204 26.329 6.47098 26.3038 6.46055C26.2786 6.45011 26.2532 6.4403 26.2275 6.43111C26.2018 6.42192 26.1759 6.41337 26.1498 6.40545C26.1237 6.39754 26.0974 6.39026 26.071 6.38364C26.0445 6.37701 26.0179 6.37104 25.9912 6.3657C25.9644 6.36039 25.9375 6.35573 25.9106 6.35173C25.8836 6.34773 25.8565 6.34439 25.8294 6.3417C25.8022 6.33904 25.775 6.33704 25.7478 6.3357C25.7205 6.33437 25.6933 6.3337 25.666 6.3337L6.3327 6.3337C6.30539 6.3337 6.27814 6.33437 6.25092 6.3357C6.22367 6.33704 6.19645 6.33904 6.16933 6.3417C6.14217 6.34439 6.11511 6.34773 6.08814 6.35173C6.06114 6.35573 6.0343 6.36039 6.00755 6.3657C5.9808 6.37104 5.95417 6.37701 5.92773 6.38364C5.90127 6.39026 5.87498 6.39754 5.84889 6.40545C5.82277 6.41337 5.79689 6.42192 5.77119 6.43111C5.74551 6.4403 5.72007 6.45011 5.69488 6.46055C5.66967 6.47098 5.64475 6.48204 5.6201 6.4937C5.59543 6.50537 5.57108 6.51763 5.54704 6.53048C5.52297 6.54334 5.49925 6.55677 5.47585 6.5708C5.45245 6.58484 5.42941 6.59943 5.40672 6.61458C5.38406 6.62972 5.36177 6.64542 5.33985 6.66167C5.31793 6.67792 5.29643 6.6947 5.27535 6.71201C5.25427 6.72931 5.23362 6.74712 5.21341 6.76545C5.1932 6.78376 5.17345 6.80257 5.15416 6.82186C5.13489 6.84113 5.11609 6.86088 5.09776 6.88111C5.07944 6.90132 5.06163 6.92196 5.04432 6.94305C5.02703 6.96413 5.01026 6.98562 4.99401 7.00751C4.97776 7.02943 4.96206 7.05173 4.94691 7.07442C4.93175 7.09709 4.91715 7.12012 4.90313 7.14351C4.88911 7.16691 4.87567 7.19064 4.86282 7.2147C4.84997 7.23876 4.8377 7.26312 4.82604 7.28776C4.81437 7.31243 4.80332 7.33736 4.79288 7.36255C4.78244 7.38776 4.77263 7.4132 4.76344 7.43889C4.75426 7.46455 4.7457 7.49045 4.73779 7.51655C4.72987 7.54264 4.7226 7.56892 4.71597 7.59539C4.70935 7.62186 4.70337 7.64845 4.69804 7.6752C4.69273 7.70195 4.68807 7.72883 4.68407 7.7558C4.68007 7.78276 4.67672 7.80983 4.67404 7.83698C4.67137 7.86414 4.66937 7.89133 4.66804 7.91858C4.66668 7.94583 4.66601 7.97308 4.66601 8.00036L4.66601 18.7654C4.88672 18.7326 5.10834 18.708 5.33088 18.6916C5.5534 18.6752 5.77623 18.667 5.99936 18.667C6.06405 18.6669 6.1287 18.6675 6.19339 18.6688C6.25808 18.6701 6.32273 18.6721 6.38736 18.6749C6.45198 18.6776 6.51658 18.681 6.58114 18.6851C6.6457 18.6892 6.7102 18.694 6.77467 18.6995C6.83911 18.705 6.90348 18.7112 6.96783 18.7181C7.03214 18.725 7.09636 18.7325 7.16055 18.7408C7.22467 18.7491 7.28873 18.7581 7.3527 18.7678C7.41664 18.7774 7.48052 18.7878 7.54427 18.7989C7.60798 18.8099 7.67158 18.8216 7.73508 18.8341C7.79855 18.8465 7.86189 18.8596 7.92511 18.8734C7.9883 18.8872 8.05133 18.9017 8.11423 18.9169C8.17711 18.932 8.2398 18.9479 8.30236 18.9644C8.36489 18.9809 8.42723 18.9981 8.48942 19.016C8.55158 19.0339 8.61355 19.0524 8.67533 19.0716C8.73708 19.0908 8.79864 19.1107 8.85999 19.1313C8.92133 19.1518 8.98245 19.173 9.04333 19.1949C9.1042 19.2168 9.16483 19.2393 9.22523 19.2625C9.28561 19.2856 9.34577 19.3095 9.40564 19.334C9.46552 19.3585 9.52511 19.3836 9.58442 19.4094C9.64373 19.4351 9.7028 19.4615 9.76158 19.4886C9.82033 19.5156 9.87877 19.5433 9.93695 19.5716C9.99511 19.6 10.053 19.6289 10.1105 19.6585C10.168 19.688 10.2252 19.7182 10.2821 19.749C10.339 19.7799 10.3955 19.8113 10.4517 19.8433C10.5079 19.8753 10.5638 19.908 10.6193 19.9412C10.6748 19.9745 10.7299 20.0083 10.7847 20.0427C10.8394 20.0772 10.8938 20.1122 10.9478 20.1478C11.0018 20.1834 11.0554 20.2196 11.1086 20.2564C11.1618 20.2931 11.2146 20.3305 11.2671 20.3684C11.3195 20.4063 11.3715 20.4448 11.4231 20.4838C11.4746 20.5229 11.5258 20.5625 11.5765 20.6026C11.6272 20.6428 11.6775 20.6835 11.7274 20.7247C13.344 16.5124 17.4027 13.667 21.9994 13.667C24.0527 13.667 25.968 14.1914 27.3327 14.9784ZM27.3327 17.5484C27.166 17.2884 26.6724 16.8717 25.9687 16.5197C24.8984 15.9844 23.532 15.667 21.9994 15.667C18.194 15.667 14.839 18.0504 13.5484 21.5637C13.463 21.7964 13.317 22.1987 13.111 22.7694C12.871 23.435 12.0344 23.6477 11.5057 23.1774C10.992 22.72 10.6134 22.394 10.3764 22.204C10.338 22.1732 10.2992 22.1427 10.2602 22.1126C10.2211 22.0826 10.1818 22.053 10.1421 22.0238C10.1025 21.9945 10.0625 21.9657 10.0222 21.9374C9.98192 21.909 9.94136 21.8811 9.90048 21.8536C9.85961 21.8261 9.81845 21.799 9.77702 21.7724C9.73555 21.7457 9.69383 21.7195 9.65183 21.6938C9.60983 21.6681 9.56755 21.6428 9.52502 21.6179C9.48245 21.5931 9.43967 21.5687 9.39661 21.5447C9.35355 21.5208 9.31023 21.4973 9.2667 21.4743C9.22314 21.4513 9.17933 21.4287 9.1353 21.4066C9.09127 21.3845 9.04702 21.3629 9.00252 21.3418C8.95802 21.3206 8.9133 21.2999 8.86839 21.2797C8.82345 21.2595 8.7783 21.2398 8.73295 21.2205C8.68758 21.2013 8.64205 21.1825 8.5963 21.1643C8.55055 21.146 8.50461 21.1282 8.45848 21.1109C8.41236 21.0936 8.36605 21.0768 8.31958 21.0604C8.27308 21.0441 8.22642 21.0283 8.17961 21.013C8.1328 20.9976 8.08583 20.9828 8.0387 20.9685C7.99155 20.9541 7.94427 20.9403 7.89686 20.927C7.84942 20.9136 7.80186 20.9008 7.75417 20.8885C7.70645 20.8761 7.65861 20.8643 7.61067 20.853C7.56273 20.8417 7.51467 20.8309 7.46648 20.8206C7.4183 20.8103 7.37002 20.8005 7.32164 20.7913C7.27323 20.782 7.22477 20.7733 7.1762 20.765C7.12764 20.7568 7.07898 20.7491 7.03023 20.7419C6.98148 20.7347 6.9327 20.728 6.88383 20.7218C6.83495 20.7157 6.78602 20.71 6.73702 20.7049C6.68802 20.6997 6.63895 20.6951 6.58986 20.691C6.54073 20.687 6.49161 20.6834 6.44245 20.6803C6.39327 20.6773 6.34408 20.6748 6.29486 20.6728C6.24561 20.6708 6.19639 20.6693 6.14714 20.6683C6.09789 20.6674 6.04861 20.6669 5.99936 20.667C5.54735 20.667 5.10169 20.7097 4.66601 20.7937L4.66601 24.0004C4.66601 24.0276 4.66668 24.0549 4.66804 24.0821C4.66937 24.1094 4.67137 24.1366 4.67404 24.1637C4.6767 24.1909 4.68005 24.218 4.68407 24.2449C4.68807 24.2719 4.69273 24.2988 4.69804 24.3255C4.70337 24.3523 4.70935 24.3789 4.71597 24.4053C4.7226 24.4318 4.72987 24.4581 4.73779 24.4842C4.7457 24.5103 4.75426 24.5362 4.76344 24.5618C4.77263 24.5875 4.78244 24.6129 4.79288 24.6382C4.80332 24.6634 4.81437 24.6883 4.82604 24.7129C4.8377 24.7376 4.84997 24.762 4.86282 24.786C4.87567 24.8101 4.88911 24.8338 4.90313 24.8572C4.91715 24.8806 4.93175 24.9036 4.94691 24.9263C4.96206 24.949 4.97776 24.9713 4.99401 24.9932C5.01026 25.0151 5.02703 25.0366 5.04432 25.0577C5.06163 25.0788 5.07944 25.0994 5.09776 25.1196C5.11607 25.1398 5.13487 25.1596 5.15416 25.1789C5.17345 25.1981 5.1932 25.217 5.21341 25.2353C5.23362 25.2536 5.25427 25.2714 5.27535 25.2887C5.29643 25.306 5.31793 25.3228 5.33985 25.339C5.36177 25.3553 5.38406 25.371 5.40672 25.3861C5.42941 25.4013 5.45245 25.4159 5.47585 25.4299C5.49925 25.4439 5.52297 25.4574 5.54701 25.4702C5.57107 25.4831 5.59543 25.4954 5.6201 25.507C5.64475 25.5187 5.66967 25.5297 5.69488 25.5401C5.72007 25.5506 5.74551 25.5604 5.77119 25.5696C5.79689 25.5788 5.82277 25.5874 5.84889 25.5953C5.87498 25.6032 5.90127 25.6105 5.92773 25.6171C5.95417 25.6237 5.9808 25.6297 6.00755 25.635C6.0343 25.6403 6.06114 25.645 6.08814 25.649C6.11511 25.653 6.14217 25.6563 6.16933 25.659C6.19645 25.6617 6.22367 25.6637 6.25092 25.665C6.27814 25.6664 6.30539 25.667 6.3327 25.667L25.666 25.667C25.6933 25.667 25.7205 25.6664 25.7478 25.665C25.775 25.6637 25.8022 25.6617 25.8294 25.659C25.8565 25.6563 25.8836 25.653 25.9106 25.649C25.9375 25.645 25.9644 25.6403 25.9912 25.635C26.0179 25.6297 26.0445 25.6237 26.071 25.6171C26.0974 25.6105 26.1237 25.6032 26.1498 25.5953C26.1759 25.5874 26.2018 25.5788 26.2275 25.5696C26.2532 25.5604 26.2786 25.5506 26.3038 25.5401C26.329 25.5297 26.354 25.5187 26.3786 25.507C26.4033 25.4954 26.4276 25.4831 26.4517 25.4702C26.4757 25.4574 26.4995 25.4439 26.5229 25.4299C26.5462 25.4159 26.5693 25.4013 26.592 25.3861C26.6146 25.371 26.6369 25.3553 26.6589 25.339C26.6808 25.3228 26.7023 25.306 26.7234 25.2887C26.7444 25.2714 26.7651 25.2536 26.7853 25.2353C26.8055 25.217 26.8252 25.1981 26.8445 25.1789C26.8638 25.1596 26.8826 25.1398 26.901 25.1196C26.9193 25.0994 26.9371 25.0788 26.9544 25.0577C26.9717 25.0366 26.9885 25.0151 27.0047 24.9932C27.021 24.9713 27.0366 24.949 27.0518 24.9263C27.067 24.9036 27.0815 24.8806 27.0956 24.8572C27.1096 24.8338 27.123 24.8101 27.1359 24.786C27.1487 24.762 27.161 24.7376 27.1727 24.7129C27.1843 24.6883 27.1954 24.6634 27.2058 24.6382C27.2163 24.6129 27.2261 24.5875 27.2353 24.5618C27.2445 24.5362 27.253 24.5103 27.2609 24.4842C27.2688 24.4581 27.2761 24.4318 27.2827 24.4053C27.2894 24.3789 27.2953 24.3523 27.3007 24.3255C27.306 24.2988 27.3106 24.2719 27.3146 24.2449C27.3186 24.218 27.322 24.1909 27.3247 24.1637C27.3273 24.1366 27.3293 24.1094 27.3307 24.0821C27.332 24.0549 27.3327 24.0276 27.3327 24.0004L27.3327 17.548L27.3327 17.5484ZM9.99936 15.0004C9.95024 15.0004 9.90117 14.9991 9.85214 14.9967C9.80311 14.9943 9.75417 14.9907 9.7053 14.9859C9.65642 14.9811 9.60773 14.9751 9.55917 14.9679C9.51061 14.9607 9.46223 14.9523 9.41408 14.9427C9.36592 14.9331 9.31805 14.9224 9.27042 14.9105C9.2228 14.8985 9.17548 14.8854 9.12852 14.8712C9.08152 14.8569 9.03489 14.8415 8.9887 14.825C8.94245 14.8085 8.89667 14.7908 8.8513 14.772C8.80592 14.7532 8.76108 14.7333 8.7167 14.7123C8.6723 14.6913 8.62845 14.6693 8.58517 14.6461C8.54186 14.623 8.49914 14.5988 8.45705 14.5735C8.41492 14.5483 8.37345 14.522 8.33264 14.4948C8.29183 14.4675 8.2517 14.4392 8.21227 14.41C8.17283 14.3807 8.13411 14.3505 8.09617 14.3194C8.0582 14.2882 8.02105 14.2562 7.98467 14.2232C7.9483 14.1902 7.91273 14.1564 7.87805 14.1217C7.8433 14.087 7.80945 14.0514 7.77652 14.015C7.74352 13.9786 7.71145 13.9415 7.68033 13.9035C7.64917 13.8656 7.61898 13.8269 7.58974 13.7875C7.56048 13.748 7.5322 13.7079 7.50495 13.6671C7.47767 13.6262 7.45142 13.5848 7.42617 13.5427C7.40092 13.5005 7.37673 13.4578 7.35361 13.4145C7.33045 13.3713 7.30839 13.3274 7.28739 13.283C7.26639 13.2386 7.24648 13.1938 7.22773 13.1484C7.20892 13.103 7.19127 13.0572 7.17473 13.011C7.15817 12.9648 7.1428 12.9182 7.12855 12.8712C7.1143 12.8242 7.1012 12.7769 7.08927 12.7293C7.07733 12.6817 7.06658 12.6338 7.05702 12.5856C7.04742 12.5375 7.03902 12.4891 7.03183 12.4405C7.02461 12.392 7.01861 12.3433 7.0138 12.2944C7.00898 12.2455 7.00536 12.1966 7.00299 12.1476C7.00055 12.0985 6.99936 12.0495 6.99936 12.0004C6.99936 11.9513 7.00055 11.9022 7.00299 11.8531C7.00536 11.8041 7.00898 11.7552 7.0138 11.7063C7.01861 11.6575 7.02461 11.6087 7.03183 11.5602C7.03902 11.5116 7.04742 11.4632 7.05702 11.4151C7.06658 11.3669 7.07733 11.319 7.08927 11.2714C7.1012 11.2238 7.1143 11.1765 7.12855 11.1295C7.1428 11.0825 7.15817 11.0359 7.17473 10.9897C7.19127 10.9435 7.20892 10.8977 7.22773 10.8523C7.24648 10.807 7.26639 10.7621 7.28739 10.7177C7.30839 10.6733 7.33045 10.6295 7.35361 10.5862C7.37673 10.5429 7.40092 10.5002 7.42617 10.458C7.45142 10.416 7.47767 10.3745 7.50495 10.3336C7.5322 10.2928 7.56048 10.2527 7.58974 10.2133C7.61898 10.1738 7.64917 10.1351 7.68033 10.0972C7.71145 10.0592 7.74352 10.022 7.77652 9.98567C7.80945 9.9493 7.8433 9.91376 7.87805 9.87905C7.91273 9.84433 7.9483 9.81048 7.98467 9.77751C8.02105 9.74455 8.0582 9.71248 8.09617 9.68133C8.13411 9.65017 8.17283 9.61998 8.21227 9.59073C8.2517 9.56148 8.29183 9.53323 8.33264 9.50595C8.37345 9.47867 8.41492 9.45242 8.45705 9.42717C8.49914 9.40195 8.54186 9.37776 8.58517 9.35461C8.62845 9.33145 8.6723 9.30939 8.7167 9.28839C8.76108 9.26739 8.80592 9.24751 8.8513 9.22873C8.89667 9.20995 8.94245 9.19226 8.9887 9.17573C9.03489 9.1592 9.08152 9.1438 9.12852 9.12955C9.17548 9.1153 9.2228 9.1022 9.27042 9.09026C9.31805 9.07833 9.36592 9.06758 9.41408 9.05801C9.46223 9.04842 9.51061 9.04005 9.55917 9.03283C9.60773 9.02561 9.65642 9.01961 9.7053 9.0148C9.75417 9.00998 9.80311 9.00639 9.85214 9.00398C9.90117 9.00158 9.95024 9.00036 9.99936 9.00036C10.0485 9.00036 10.0975 9.00158 10.1465 9.00398C10.1956 9.00639 10.2445 9.00998 10.2934 9.0148C10.3423 9.01961 10.391 9.02561 10.4395 9.03283C10.4881 9.04005 10.5365 9.04842 10.5846 9.05801C10.6328 9.06758 10.6807 9.07833 10.7283 9.09026C10.7759 9.1022 10.8232 9.1153 10.8702 9.12955C10.9172 9.1438 10.9638 9.1592 11.01 9.17573C11.0562 9.19226 11.102 9.20995 11.1474 9.22873C11.1928 9.24751 11.2376 9.26739 11.282 9.28839C11.3264 9.30939 11.3702 9.33145 11.4135 9.35461C11.4568 9.37773 11.4995 9.40192 11.5417 9.42717C11.5838 9.45242 11.6252 9.47867 11.6661 9.50595C11.7069 9.53323 11.747 9.56148 11.7865 9.59073C11.8259 9.61998 11.8646 9.65017 11.9025 9.68133C11.9405 9.71248 11.9776 9.74455 12.014 9.77751C12.0504 9.81048 12.086 9.84433 12.1207 9.87905C12.1554 9.91376 12.1892 9.9493 12.2222 9.98567C12.2552 10.022 12.2872 10.0592 12.3184 10.0972C12.3495 10.1351 12.3797 10.1738 12.409 10.2133C12.4382 10.2527 12.4665 10.2928 12.4938 10.3336C12.521 10.3745 12.5473 10.416 12.5725 10.458C12.5978 10.5002 12.622 10.5429 12.6451 10.5862C12.6682 10.6295 12.6903 10.6733 12.7113 10.7177C12.7323 10.7621 12.7522 10.807 12.771 10.8523C12.7898 10.8977 12.8074 10.9435 12.824 10.9897C12.8405 11.0359 12.8559 11.0825 12.8702 11.1295C12.8844 11.1765 12.8975 11.2238 12.9095 11.2714C12.9214 11.319 12.9321 11.3669 12.9417 11.4151C12.9513 11.4632 12.9597 11.5116 12.9669 11.5602C12.9741 11.6087 12.9801 11.6575 12.9849 11.7063C12.9897 11.7552 12.9933 11.8041 12.9957 11.8531C12.9981 11.9022 12.9994 11.9513 12.9994 12.0004C12.9994 12.0495 12.9981 12.0985 12.9957 12.1476C12.9933 12.1966 12.9897 12.2455 12.9849 12.2944C12.9801 12.3433 12.9741 12.392 12.9669 12.4405C12.9597 12.4891 12.9513 12.5375 12.9417 12.5856C12.9321 12.6338 12.9214 12.6817 12.9095 12.7293C12.8975 12.7769 12.8844 12.8242 12.8702 12.8712C12.8559 12.9182 12.8405 12.9648 12.824 13.011C12.8074 13.0572 12.7898 13.103 12.771 13.1484C12.7522 13.1938 12.7323 13.2386 12.7113 13.283C12.6903 13.3274 12.6682 13.3713 12.6451 13.4145C12.622 13.4578 12.5978 13.5005 12.5725 13.5427C12.5473 13.5848 12.521 13.6262 12.4938 13.6671C12.4665 13.7079 12.4382 13.748 12.409 13.7875C12.3797 13.8269 12.3495 13.8656 12.3184 13.9035C12.2872 13.9415 12.2552 13.9786 12.2222 14.015C12.1892 14.0514 12.1554 14.087 12.1207 14.1217C12.086 14.1564 12.0504 14.1902 12.014 14.2232C11.9776 14.2562 11.9405 14.2882 11.9025 14.3194C11.8646 14.3505 11.8259 14.3807 11.7865 14.41C11.747 14.4392 11.7069 14.4675 11.6661 14.4948C11.6252 14.522 11.5838 14.5483 11.5417 14.5735C11.4995 14.5988 11.4568 14.623 11.4135 14.6461C11.3702 14.6693 11.3264 14.6913 11.282 14.7123C11.2376 14.7333 11.1928 14.7532 11.1474 14.772C11.102 14.7908 11.0562 14.8085 11.01 14.825C10.9638 14.8415 10.9172 14.8569 10.8702 14.8712C10.8232 14.8854 10.7759 14.8985 10.7283 14.9105C10.6807 14.9224 10.6328 14.9331 10.5846 14.9427C10.5365 14.9523 10.4881 14.9607 10.4395 14.9679C10.391 14.9751 10.3423 14.9811 10.2934 14.9859C10.2445 14.9907 10.1956 14.9943 10.1466 14.9967C10.0975 14.9991 10.0485 15.0004 9.99936 15.0004ZM9.99936 13.0004C10.0157 13.0004 10.0321 13 10.0484 12.9991C10.0648 12.9984 10.0811 12.9971 10.0974 12.9955C10.1136 12.994 10.1299 12.992 10.1461 12.9895C10.1623 12.9871 10.1784 12.9843 10.1945 12.9811C10.2105 12.978 10.2265 12.9744 10.2423 12.9704C10.2582 12.9664 10.274 12.962 10.2896 12.9573C10.3053 12.9525 10.3208 12.9474 10.3362 12.9419C10.3516 12.9364 10.3669 12.9305 10.382 12.9242C10.3972 12.918 10.4121 12.9113 10.4269 12.9044C10.4417 12.8974 10.4563 12.89 10.4708 12.8823C10.4852 12.8745 10.4994 12.8665 10.5135 12.8581C10.5275 12.8497 10.5413 12.8409 10.5549 12.8318C10.5685 12.8227 10.5819 12.8133 10.595 12.8036C10.6082 12.7938 10.6211 12.7838 10.6338 12.7734C10.6464 12.763 10.6588 12.7523 10.6709 12.7413C10.683 12.7303 10.6949 12.719 10.7065 12.7075C10.718 12.6959 10.7293 12.684 10.7403 12.6719C10.7513 12.6598 10.762 12.6474 10.7724 12.6348C10.7827 12.6221 10.7928 12.6092 10.8026 12.596C10.8123 12.5829 10.8217 12.5695 10.8308 12.5559C10.8399 12.5423 10.8486 12.5285 10.8571 12.5145C10.8655 12.5004 10.8735 12.4862 10.8813 12.4718C10.889 12.4573 10.8964 12.4427 10.9034 12.4279C10.9103 12.4131 10.917 12.3982 10.9232 12.383C10.9295 12.3679 10.9354 12.3526 10.9409 12.3372C10.9464 12.3218 10.9515 12.3063 10.9563 12.2906C10.961 12.275 10.9654 12.2592 10.9694 12.2433C10.9734 12.2275 10.977 12.2115 10.9801 12.1955C10.9833 12.1794 10.9861 12.1633 10.9885 12.1471C10.9909 12.1309 10.9929 12.1147 10.9945 12.0984C10.9961 12.0821 10.9973 12.0658 10.9981 12.0494C10.999 12.0331 10.9994 12.0167 10.9994 12.0004C10.9994 11.984 10.999 11.9676 10.9981 11.9513C10.9973 11.935 10.9961 11.9186 10.9945 11.9023C10.9929 11.886 10.9909 11.8698 10.9885 11.8536C10.9861 11.8375 10.9833 11.8213 10.9801 11.8053C10.977 11.7892 10.9734 11.7733 10.9694 11.7574C10.9654 11.7415 10.961 11.7257 10.9563 11.7101C10.9515 11.6944 10.9464 11.6789 10.9409 11.6635C10.9354 11.6481 10.9295 11.6328 10.9232 11.6177C10.917 11.6025 10.9103 11.5876 10.9034 11.5728C10.8964 11.558 10.889 11.5434 10.8813 11.529C10.8735 11.5145 10.8655 11.5003 10.8571 11.4863C10.8486 11.4722 10.8399 11.4584 10.8308 11.4448C10.8217 11.4312 10.8123 11.4178 10.8026 11.4047C10.7928 11.3915 10.7827 11.3786 10.7724 11.366C10.762 11.3533 10.7513 11.3409 10.7403 11.3288C10.7293 11.3167 10.718 11.3048 10.7065 11.2933C10.6949 11.2817 10.683 11.2704 10.6709 11.2594C10.6588 11.2484 10.6464 11.2377 10.6338 11.2274C10.6211 11.217 10.6082 11.2069 10.595 11.1971C10.5819 11.1874 10.5685 11.178 10.5549 11.1689C10.5413 11.1598 10.5275 11.151 10.5135 11.1426C10.4994 11.1342 10.4852 11.1262 10.4708 11.1185C10.4563 11.1107 10.4417 11.1034 10.4269 11.0964C10.4121 11.0894 10.3972 11.0827 10.382 11.0765C10.3669 11.0702 10.3516 11.0643 10.3362 11.0588C10.3208 11.0533 10.3053 11.0482 10.2896 11.0434C10.274 11.0387 10.2582 11.0343 10.2423 11.0303C10.2265 11.0264 10.2105 11.0228 10.1945 11.0196C10.1784 11.0164 10.1623 11.0136 10.1461 11.0112C10.1299 11.0088 10.1136 11.0068 10.0974 11.0052C10.0811 11.0036 10.0648 11.0024 10.0484 11.0016C10.0321 11.0008 10.0157 11.0004 9.99936 11.0004C9.98298 11.0004 9.96661 11.0008 9.9503 11.0016C9.93392 11.0024 9.91761 11.0036 9.90133 11.0052C9.88505 11.0068 9.86883 11.0088 9.85264 11.0112C9.83645 11.0136 9.82033 11.0164 9.80427 11.0196C9.7882 11.0228 9.77227 11.0264 9.75639 11.0303C9.74052 11.0343 9.72474 11.0387 9.70908 11.0434C9.69339 11.0482 9.67786 11.0533 9.66245 11.0588C9.64705 11.0643 9.6318 11.0702 9.61667 11.0765C9.60155 11.0827 9.58658 11.0894 9.5718 11.0964C9.55698 11.1034 9.54239 11.1107 9.52795 11.1185C9.51352 11.1262 9.49927 11.1342 9.48527 11.1426C9.4712 11.151 9.45739 11.1598 9.4438 11.1689C9.43017 11.178 9.4168 11.1874 9.40367 11.1971C9.39052 11.2069 9.37761 11.217 9.36495 11.2274C9.3523 11.2377 9.33992 11.2484 9.3278 11.2594C9.31567 11.2704 9.30383 11.2817 9.29227 11.2933C9.28067 11.3048 9.26939 11.3167 9.25842 11.3288C9.24742 11.3409 9.23673 11.3533 9.22636 11.366C9.21595 11.3786 9.20589 11.3915 9.19614 11.4047C9.18639 11.4178 9.17695 11.4312 9.16789 11.4448C9.1588 11.4584 9.15005 11.4722 9.14164 11.4863C9.1332 11.5003 9.12514 11.5145 9.11745 11.529C9.1097 11.5434 9.10236 11.558 9.09536 11.5728C9.08836 11.5876 9.08174 11.6025 9.07549 11.6177C9.0692 11.6328 9.06333 11.648 9.05783 11.6635C9.0523 11.6789 9.04717 11.6944 9.04242 11.7101C9.03767 11.7257 9.0333 11.7415 9.02933 11.7574C9.02533 11.7733 9.02177 11.7892 9.01858 11.8053C9.01539 11.8213 9.01258 11.8375 9.01017 11.8536C9.00777 11.8698 9.00577 11.886 9.00417 11.9023C9.00255 11.9186 9.00136 11.935 9.00058 11.9513C8.99977 11.9676 8.99936 11.984 8.99936 12.0004C8.99936 12.0167 8.99977 12.0331 9.00058 12.0494C9.00136 12.0658 9.00255 12.0821 9.00417 12.0984C9.00577 12.1147 9.00777 12.1309 9.01017 12.1471C9.01258 12.1633 9.01539 12.1794 9.01858 12.1955C9.02177 12.2115 9.02533 12.2275 9.02933 12.2433C9.0333 12.2592 9.03767 12.275 9.04242 12.2906C9.04717 12.3063 9.0523 12.3218 9.05783 12.3372C9.06333 12.3526 9.0692 12.3679 9.07549 12.383C9.08174 12.3982 9.08836 12.4131 9.09536 12.4279C9.10236 12.4427 9.1097 12.4573 9.11745 12.4718C9.12514 12.4862 9.1332 12.5004 9.14164 12.5145C9.15005 12.5285 9.1588 12.5423 9.16789 12.5559C9.17695 12.5695 9.18639 12.5829 9.19614 12.596C9.20589 12.6092 9.21595 12.6221 9.22636 12.6348C9.23673 12.6474 9.24742 12.6598 9.25842 12.6719C9.26939 12.684 9.28067 12.6959 9.29227 12.7075C9.30383 12.719 9.31567 12.7303 9.3278 12.7413C9.33992 12.7523 9.3523 12.763 9.36495 12.7734C9.37761 12.7838 9.39052 12.7938 9.40367 12.8036C9.4168 12.8133 9.43017 12.8227 9.4438 12.8318C9.45739 12.8409 9.4712 12.8497 9.48527 12.8581C9.49927 12.8665 9.51352 12.8745 9.52795 12.8823C9.54239 12.89 9.55698 12.8974 9.5718 12.9044C9.58658 12.9113 9.60155 12.918 9.61667 12.9242C9.6318 12.9305 9.64705 12.9364 9.66245 12.9419C9.67786 12.9474 9.69339 12.9525 9.70908 12.9573C9.72474 12.962 9.74052 12.9664 9.75639 12.9704C9.77227 12.9744 9.7882 12.978 9.80427 12.9811C9.82033 12.9843 9.83645 12.9871 9.85264 12.9895C9.86883 12.992 9.88505 12.994 9.90133 12.9955C9.91761 12.9971 9.93392 12.9984 9.9503 12.9991C9.96661 13 9.98298 13.0004 9.99936 13.0004Z"   fill="#FFFFFF" >
</path>
</svg>
